<svg width="50" height="50" viewBox="0 0 50 50" fill="none" xmlns="http://www.w3.org/2000/svg">
<path d="M23.4609 0.961426C11.0315 0.961426 0.960938 11.032 0.960938 23.4614C0.960938 35.8909 11.0315 45.9614 23.4609 45.9614C35.8904 45.9614 45.9609 35.8909 45.9609 23.4614C45.9609 11.032 35.8904 0.961426 23.4609 0.961426ZM23.4609 9.6711C27.8702 9.6711 31.4448 13.2457 31.4448 17.655C31.4448 22.0642 27.8702 25.6388 23.4609 25.6388C19.0517 25.6388 15.4771 22.0642 15.4771 17.655C15.4771 13.2457 19.0517 9.6711 23.4609 9.6711ZM23.4609 40.8808C18.1353 40.8808 13.3632 38.4675 10.1696 34.6933C11.8753 31.4816 15.214 29.2679 19.1061 29.2679C19.3238 29.2679 19.5416 29.3042 19.7503 29.3677C20.9297 29.7487 22.1636 29.9937 23.4609 29.9937C24.7583 29.9937 26.0013 29.7487 27.1716 29.3677C27.3803 29.3042 27.598 29.2679 27.8158 29.2679C31.7079 29.2679 35.0466 31.4816 36.7523 34.6933C33.5587 38.4675 28.7865 40.8808 23.4609 40.8808Z" fill="#F5F5F5"/>
</svg>
