<svg width="43" height="43" viewBox="0 0 43 43" fill="none" xmlns="http://www.w3.org/2000/svg">
<circle cx="21.5" cy="21.5" r="21.5" fill="#F5F5F5"/>
<path d="M21.5042 13.6379C17.1565 13.6379 13.6497 17.1448 13.6497 21.4924C13.6497 25.8401 17.1565 29.3469 21.5042 29.3469C25.8518 29.3469 29.3586 25.8401 29.3586 21.4924C29.3586 17.1448 25.8518 13.6379 21.5042 13.6379ZM21.5042 26.5989C18.6946 26.5989 16.3977 24.3088 16.3977 21.4924C16.3977 18.676 18.6877 16.386 21.5042 16.386C24.3206 16.386 26.6106 18.676 26.6106 21.4924C26.6106 24.3088 24.3137 26.5989 21.5042 26.5989ZM31.512 13.3167C31.512 14.3352 30.6917 15.1487 29.6799 15.1487C28.6614 15.1487 27.8479 14.3284 27.8479 13.3167C27.8479 12.3049 28.6682 11.4846 29.6799 11.4846C30.6917 11.4846 31.512 12.3049 31.512 13.3167ZM36.7141 15.176C36.5979 12.7219 36.0374 10.5481 34.2395 8.75708C32.4485 6.96606 30.2747 6.40552 27.8206 6.28247C25.2913 6.13892 17.7102 6.13892 15.1809 6.28247C12.7336 6.39868 10.5598 6.95923 8.76196 8.75024C6.96411 10.5413 6.4104 12.7151 6.28735 15.1692C6.1438 17.6985 6.1438 25.2795 6.28735 27.8088C6.40356 30.2629 6.96411 32.4368 8.76196 34.2278C10.5598 36.0188 12.7268 36.5793 15.1809 36.7024C17.7102 36.8459 25.2913 36.8459 27.8206 36.7024C30.2747 36.5862 32.4485 36.0256 34.2395 34.2278C36.0305 32.4368 36.5911 30.2629 36.7141 27.8088C36.8577 25.2795 36.8577 17.7053 36.7141 15.176ZM33.4465 30.5227C32.9133 31.8625 31.8811 32.8948 30.5344 33.4348C28.5178 34.2346 23.7327 34.05 21.5042 34.05C19.2756 34.05 14.4836 34.2278 12.4739 33.4348C11.134 32.9016 10.1018 31.8694 9.56177 30.5227C8.76196 28.5061 8.94653 23.7209 8.94653 21.4924C8.94653 19.2639 8.7688 14.4719 9.56177 12.4622C10.095 11.1223 11.1272 10.0901 12.4739 9.55005C14.4905 8.75024 19.2756 8.93481 21.5042 8.93481C23.7327 8.93481 28.5247 8.75708 30.5344 9.55005C31.8743 10.0833 32.9065 11.1155 33.4465 12.4622C34.2463 14.4788 34.0618 19.2639 34.0618 21.4924C34.0618 23.7209 34.2463 28.5129 33.4465 30.5227Z" fill="#1D4C77"/>
</svg>
