<svg width="50" height="40" viewBox="0 0 50 40" fill="none" xmlns="http://www.w3.org/2000/svg">
<path d="M34.3164 13.8713C34.3164 6.67762 27.043 0.851074 18.0664 0.851074C9.08984 0.851074 1.81641 6.67762 1.81641 13.8713C1.81641 16.6625 2.91797 19.234 4.78516 21.3579C3.73828 23.8155 2.01172 25.7685 1.98828 25.7929C1.81641 25.9801 1.76953 26.2568 1.87109 26.5009C1.97266 26.745 2.19141 26.8915 2.44141 26.8915C5.30078 26.8915 7.66797 25.8906 9.37109 24.8571C11.8867 26.1347 14.8633 26.8915 18.0664 26.8915C27.043 26.8915 34.3164 21.065 34.3164 13.8713ZM43.8477 31.7741C45.7148 29.6583 46.8164 27.0787 46.8164 24.2875C46.8164 18.8434 42.6367 14.1805 36.7148 12.2356C36.7852 12.7727 36.8164 13.3179 36.8164 13.8713C36.8164 22.4891 28.4023 29.4956 18.0664 29.4956C17.2227 29.4956 16.4023 29.4305 15.5898 29.341C18.0508 34.0201 23.832 37.3077 30.5664 37.3077C33.7695 37.3077 36.7461 36.559 39.2617 35.2733C40.9648 36.3068 43.332 37.3077 46.1914 37.3077C46.4414 37.3077 46.668 37.1531 46.7617 36.9171C46.8633 36.6811 46.8164 36.4044 46.6445 36.2091C46.6211 36.1847 44.8945 34.2398 43.8477 31.7741Z" fill="#F5F5F5"/>
</svg>
