<svg width="38" height="38" viewBox="0 0 38 38" fill="none" xmlns="http://www.w3.org/2000/svg">
    <path
        d="M36.0696 0C35.2332 0 34.542 0.522059 34.3136 1.28142L26.3404 22.1638L30.8253 23.7774L37.968 2.1357C38.0452 1.75602 37.9769 1.37041 37.8257 1.06785C37.5973 0.611047 37.2146 0.293658 36.7578 0.14238C36.5294 0.0652574 36.298 0 36.0696 0ZM12.221 3.10862C9.86583 3.10862 7.74496 4.33665 6.45465 6.31217C5.99785 6.31217 5.69529 6.37446 5.31561 6.52574L6.38346 7.73597C6.61186 7.65884 6.74831 7.67071 6.97671 7.59359H7.35639L7.5225 7.2851C8.43313 5.6151 10.2514 4.55615 12.1498 4.55615C14.5792 4.55615 16.7149 6.23505 17.323 8.59024L17.4653 9.18349H18.2247C19.6663 9.18349 20.8113 10.1713 21.191 11.4616H22.7809C22.4012 9.41189 20.7253 7.81605 18.6756 7.66478C17.6878 4.9299 15.1813 3.10862 12.221 3.10862ZM1.6612 4.50869C1.47136 4.49089 1.25779 4.54725 1.06795 4.69853C0.688267 5.00109 0.673436 5.46382 0.901837 5.76638L2.99007 8.30549C2.26334 9.17459 1.75018 10.2187 1.59001 11.3904H3.10872C3.2422 10.6814 3.53883 10.0289 3.93927 9.46825L10.726 17.7025C10.6608 17.8627 10.6311 18.0348 10.6311 18.2246C10.6311 19.0611 11.3134 19.7433 12.1498 19.7433C12.9863 19.7433 13.6686 19.0611 13.6686 18.2246C13.6686 17.3881 12.9863 16.7059 12.1498 16.7059C12.0846 16.7059 12.0223 16.7207 11.96 16.7296L2.13579 4.79345C2.02308 4.64217 1.85104 4.52649 1.6612 4.50869ZM0.759457 12.1497C0.531057 12.1497 0.293757 12.2358 0.142478 12.387C-0.00880017 12.6154 9.86019e-05 12.8231 9.86019e-05 13.0515L3.79689 37.351C3.87401 37.6535 4.17657 37.9679 4.55625 37.9679H17.4653C15.7954 36.6776 15.1873 34.8445 15.1873 33.1745C15.1873 28.3158 19.521 24.9817 22.7097 23.1604L24.2996 13.0515C24.2996 12.8231 24.3085 12.6095 24.1572 12.4582C24.0059 12.2298 23.7686 12.1497 23.5402 12.1497H10.1091L12.6007 15.2584C14.0423 15.4868 15.1873 16.783 15.1873 18.2246C15.1873 19.8946 13.8198 21.262 12.1498 21.262C10.4798 21.262 9.1124 19.8946 9.1124 18.2246V18.1534L4.17657 12.1497H0.759457ZM25.4386 23.4689C22.9321 24.608 16.706 28.0102 16.706 33.1745C16.706 33.3169 16.7179 33.4592 16.7297 33.6016C16.7386 33.7025 16.7386 33.8093 16.7534 33.9101C16.7594 33.9546 16.7683 34.008 16.7772 34.0525C16.795 34.1444 16.8246 34.2453 16.8484 34.3372C16.9403 34.7051 17.0827 35.058 17.2755 35.4051C17.2933 35.4377 17.3052 35.4704 17.323 35.5C17.3823 35.5979 17.4446 35.6899 17.5128 35.7848C17.5603 35.85 17.6048 35.9123 17.6552 35.9746C17.6789 36.0043 17.6997 36.0399 17.7264 36.0695C17.8243 36.1852 17.9429 36.295 18.0586 36.4018C19.0078 37.3183 20.4968 37.9679 22.7097 37.9679C21.8732 37.3599 21.185 36.6005 20.8825 35.6899C19.7434 32.8808 21.713 29.7633 22.852 28.5471C23.1546 28.2446 23.6173 28.2446 23.9199 28.5471C24.2225 28.8497 24.2225 29.3124 23.9199 29.615C22.7809 30.754 21.4223 33.1923 22.2588 35.1678C22.7898 36.4581 24.1424 37.3599 26.2692 37.9679H28.0964C26.8802 37.2857 26.1327 36.5145 25.6759 35.8322C24.9166 34.6161 24.6793 33.2605 25.0589 31.8931C25.2102 31.5134 25.581 31.2939 25.9607 31.371C26.3404 31.4481 26.5836 31.8931 26.5065 32.2727C26.3552 32.8037 26.198 33.7915 26.9573 34.9305C27.7167 35.9924 29.4727 37.4399 33.6492 37.8967H37.2087C37.5884 37.8967 37.8909 37.5883 37.968 37.2086C37.968 36.906 37.7307 36.5263 37.3511 36.4492C37.2739 36.4492 32.2017 35.2301 30.3033 31.5846C29.3155 29.7633 30.3033 25.2012 30.3033 25.2012H30.2321L25.6759 23.5401L25.4386 23.4689Z"
        fill="#F5F5F5" />
</svg>