<svg width="35" height="18" viewBox="0 0 35 18" fill="none" xmlns="http://www.w3.org/2000/svg">
<path d="M10.3693 11.735C10.5629 11.9132 11.2044 12.2501 12.25 12.2501C13.2956 12.2501 13.9377 11.9132 14.1307 11.735C15.0068 10.9272 16.0174 10.5001 17.0543 10.5001H17.9457C18.9826 10.5001 19.9937 10.9272 20.8693 11.735C21.0629 11.9132 21.7044 12.2501 22.75 12.2501C23.7956 12.2501 24.4377 11.9132 24.6307 11.735C25.4434 10.9852 26.3741 10.58 27.3317 10.5231L21.1608 6.11527L22.1452 5.41198C22.3442 5.27089 22.598 5.21948 22.8353 5.26925L28.3232 6.44667C29.7402 6.74909 31.1363 5.84675 31.4404 4.4298C31.7439 3.0123 30.8416 1.61667 29.4235 1.31261L23.9356 0.135188C22.2551 -0.224656 20.4892 0.14175 19.0925 1.14034L14.7164 4.26683C14.1488 4.67097 13.6577 5.16589 13.2552 5.74011L9.50195 11.1017C9.80109 11.2783 10.0937 11.4807 10.3693 11.735ZM34.125 14.0001H33.25C31.8259 14.0001 30.7453 13.5396 30.1826 13.0212C29.6959 12.5722 29.1074 12.2501 28.4452 12.2501H27.5537C26.8915 12.2501 26.303 12.5722 25.8163 13.0212C25.2547 13.5396 24.1741 14.0001 22.75 14.0001C21.3259 14.0001 20.2453 13.5396 19.6826 13.0212C19.1959 12.5722 18.6074 12.2501 17.9452 12.2501H17.0537C16.3915 12.2501 15.803 12.5722 15.3163 13.0212C14.7547 13.5396 13.6741 14.0001 12.25 14.0001C10.8259 14.0001 9.74531 13.5396 9.18258 13.0212C8.69586 12.5722 8.10742 12.2501 7.44516 12.2501H6.55375C5.89148 12.2501 5.30305 12.5722 4.81633 13.0212C4.25469 13.5396 3.17406 14.0001 1.75 14.0001H0.875C0.391562 14.0001 0 14.3917 0 14.8751V16.6251C0 17.1085 0.391562 17.5001 0.875 17.5001H1.75C3.86203 17.5001 5.72687 16.8335 7 15.7589C8.27313 16.834 10.138 17.5001 12.25 17.5001C14.362 17.5001 16.2269 16.8335 17.5 15.7589C18.7731 16.834 20.638 17.5001 22.75 17.5001C24.862 17.5001 26.7269 16.8335 28 15.7589C29.2731 16.834 31.138 17.5001 33.25 17.5001H34.125C34.6084 17.5001 35 17.1085 35 16.6251V14.8751C35 14.3917 34.6084 14.0001 34.125 14.0001ZM6.125 8.75011C8.54109 8.75011 10.5 6.7912 10.5 4.37511C10.5 1.95902 8.54109 0.000109698 6.125 0.000109698C3.70891 0.000109698 1.75 1.95902 1.75 4.37511C1.75 6.7912 3.70891 8.75011 6.125 8.75011Z" fill="#F5F5F5"/>
</svg>
