<svg width="52" height="46" viewBox="0 0 52 46" fill="none" xmlns="http://www.w3.org/2000/svg">
    <path d="M51.1524 4.53532C50.3792 3.7026 49.1896 3.52416 48.1784 3.88104C48.5353 2.81041 48.3569 1.6803 47.5242 0.847584C46.3941 -0.282528 44.5502 -0.282528 43.4201 0.847584C42.8253 1.44238 42.5874 2.27509 42.6468 3.04833C42.8253 5.66543 41.3383 7.74721 40.2082 8.87732C37.1747 11.9108 27.8959 12.684 27.8959 12.684C25.9926 12.9219 24.2082 13.7546 22.6617 15.0632C22.0074 15.3011 21.4126 14.171 22.7212 13.1004C23.3755 12.5651 24.9814 11.9703 24.3866 11.6729C12.3123 11.9703 2.6171 20.7138 2.6171 31.4796C2.6171 42.4238 7.61338 41.3532 25.1004 41.3532C43.9554 41.3532 47.5836 42.4238 47.5836 31.4796C47.5836 26.5428 45.5019 22.0818 42.171 18.5725C41.6952 20.5948 41.3383 22.7361 41.2193 24.342V24.4015C40.803 27.0781 39.6729 29.4572 37.829 31.3011C35.5093 33.5613 32.4758 34.8104 29.2639 34.8104C26.4089 34.8104 23.8513 33.9777 21.6506 32.1338C20.5204 31.0632 21.8885 29.6357 23.197 30.8848C23.6134 31.1822 24.0297 31.4796 24.5056 31.7175C24.6245 31.777 24.684 31.8364 24.803 31.8959C25.1599 32.0743 25.5762 32.1933 25.9331 32.3717L26.6468 32.5502C26.9442 32.6691 27.2416 32.7286 27.539 32.7881C28.0743 32.9071 28.6691 32.9665 29.2045 32.9665C30.3941 32.9665 31.5242 32.7286 32.6543 32.3717C34.0223 31.8364 35.3903 31.0632 36.461 29.9331C38.1264 28.3271 39.0186 26.3048 39.316 24.1636H39.3755C39.3755 24.1636 40.1487 14.8848 43.1822 11.8513C44.3123 10.7212 46.4535 9.2342 49.1301 9.41264H49.1896C49.9033 9.41264 50.6171 9.11524 51.1524 8.57993C52.2825 7.44981 52.2825 5.66543 51.1524 4.53532ZM47.8216 43.7918H1.72491C0.773234 43.7918 0 44.0297 0 44.2677V44.9814C0 45.2788 0.773234 45.4572 1.72491 45.4572H47.8216C48.7732 45.4572 49.5465 45.2788 49.5465 44.9814V44.2677C49.6059 44.0297 48.7732 43.7918 47.8216 43.7918Z" fill="#F5F5F5"/>
</svg>
