<svg width="32" height="32" viewBox="0 0 52 52" fill="none" xmlns="http://www.w3.org/2000/svg">
<path d="M37.1426 12.4603L36.5855 14.1132C36.5072 14.346 36.4759 14.5921 36.4934 14.8371C36.5109 15.0821 36.5768 15.3212 36.6874 15.5406C36.7979 15.76 36.9509 15.9552 37.1374 16.1151C37.3239 16.2749 37.5403 16.3961 37.774 16.4718C37.961 16.5282 38.1546 16.5595 38.3498 16.5646C38.7414 16.5643 39.1229 16.4403 39.4398 16.2101C39.7566 15.98 39.9926 15.6555 40.114 15.2832L40.6712 13.6118C40.9181 12.7767 40.9381 11.891 40.7292 11.0456C40.5203 10.2002 40.09 9.42574 39.4826 8.80178C39.2761 8.51807 39.1894 8.16456 39.2412 7.81749L39.7983 6.14606C39.9507 5.67814 39.911 5.16889 39.6882 4.73015C39.4653 4.2914 39.0775 3.95905 38.6098 3.80606C38.1418 3.65374 37.6326 3.69335 37.1938 3.9162C36.7551 4.13905 36.4227 4.52692 36.2698 4.99463L35.7126 6.66606C35.4693 7.49847 35.451 8.38054 35.6599 9.22228C35.8687 10.064 36.297 10.8353 36.9012 11.4575C37.1107 11.7469 37.1974 12.1073 37.1426 12.4603Z" fill="#F5F5F5"/>
<path d="M50.1429 31.5745C50.6354 31.5745 51.1078 31.3788 51.4561 31.0306C51.8043 30.6823 52 30.2099 52 29.7174V22.2888C52 21.7962 51.8043 21.3239 51.4561 20.9756C51.1078 20.6273 50.6354 20.4316 50.1429 20.4316H1.85714C1.3646 20.4316 0.892226 20.6273 0.543944 20.9756C0.195663 21.3239 0 21.7962 0 22.2888V37.1459C0 37.6385 0.195663 38.1108 0.543944 38.4591C0.892226 38.8074 1.3646 39.0031 1.85714 39.0031C2.34969 39.0031 2.82206 38.8074 3.17034 38.4591C3.51862 38.1108 3.71429 37.6385 3.71429 37.1459V31.5745H9.28571V40.8602H1.85714C1.3646 40.8602 0.892226 41.0559 0.543944 41.4042C0.195663 41.7524 0 42.2248 0 42.7174V50.1459C0 50.6385 0.195663 51.1108 0.543944 51.4591C0.892226 51.8074 1.3646 52.0031 1.85714 52.0031H50.1429C50.6354 52.0031 51.1078 51.8074 51.4561 51.4591C51.8043 51.1108 52 50.6385 52 50.1459V35.2888C52 34.7962 51.8043 34.3239 51.4561 33.9756C51.1078 33.6273 50.6354 33.4316 50.1429 33.4316C49.6503 33.4316 49.1779 33.6273 48.8297 33.9756C48.4814 34.3239 48.2857 34.7962 48.2857 35.2888V40.8602H42.7143V31.5745H50.1429ZM48.2857 27.8602H42.7143V24.1459H48.2857V27.8602ZM39 24.1459V27.8602H33.4286V24.1459H39ZM22.2857 40.8602V31.5745H29.7143V40.8602H22.2857ZM29.7143 44.5745V48.2888H22.2857V44.5745H29.7143ZM22.2857 27.8602V24.1459H29.7143V27.8602H22.2857ZM18.5714 24.1459V27.8602H13V24.1459H18.5714ZM3.71429 27.8602V24.1459H9.28571V27.8602H3.71429ZM13 31.5745H18.5714V40.8602H13V31.5745ZM3.71429 44.5745H9.28571V48.2888H3.71429V44.5745ZM13 48.2888V44.5745H18.5714V48.2888H13ZM33.4286 48.2888V44.5745H39V48.2888H33.4286ZM48.2857 44.5745V48.2888H42.7143V44.5745H48.2857ZM39 40.8602H33.4286V31.5745H39V40.8602Z" fill="#F5F5F5"/>
<path d="M25.9981 8.7455L25.4409 10.3984C25.3627 10.6312 25.3314 10.8773 25.3489 11.1223C25.3664 11.3673 25.4323 11.6064 25.5429 11.8258C25.6534 12.0451 25.8064 12.2404 25.9929 12.4002C26.1794 12.5601 26.3958 12.6813 26.6295 12.7569C26.8164 12.8134 27.01 12.8446 27.2052 12.8498C27.5969 12.8495 27.9784 12.7254 28.2952 12.4953C28.6121 12.2651 28.8481 11.9407 28.9695 11.5684L29.5267 9.89693C29.7735 9.06187 29.7936 8.17612 29.5847 7.33075C29.3758 6.48538 28.9455 5.7109 28.3381 5.08693C28.1316 4.80323 28.0449 4.44971 28.0967 4.10265L28.6538 2.43122C28.8061 1.9633 28.7665 1.45404 28.5437 1.0153C28.3208 0.576561 27.9329 0.244203 27.4652 0.0912199C26.9973 -0.0611087 26.488 -0.0214971 26.0493 0.201355C25.6106 0.424208 25.2782 0.812081 25.1252 1.27979L24.5681 2.95122C24.3247 3.78363 24.3065 4.6657 24.5153 5.50744C24.7241 6.34918 25.1525 7.12048 25.7567 7.74265C25.9661 8.03206 26.0529 8.39247 25.9981 8.7455Z" fill="#F5F5F5"/>
<path d="M48.0643 8.7455L47.5071 10.3984C47.4289 10.6312 47.3976 10.8773 47.4151 11.1223C47.4326 11.3673 47.4985 11.6064 47.609 11.8258C47.7196 12.0451 47.8725 12.2404 48.0591 12.4002C48.2456 12.5601 48.462 12.6813 48.6957 12.7569C48.8823 12.8148 49.0761 12.846 49.2714 12.8498C49.663 12.8495 50.0445 12.7254 50.3614 12.4953C50.6783 12.2651 50.9143 11.9407 51.0357 11.5684L51.5928 9.89693C51.8358 9.06153 51.8539 8.17677 51.6452 7.33215C51.4365 6.48753 51.0084 5.71301 50.4043 5.08693C50.1912 4.80596 50.0977 4.45219 50.1443 4.10265L50.7014 2.43122C50.8537 1.9633 50.8141 1.45404 50.5913 1.0153C50.3684 0.576561 49.9805 0.244203 49.5128 0.0912199C49.0449 -0.0611087 48.5356 -0.0214971 48.0969 0.201355C47.6582 0.424208 47.3258 0.812081 47.1728 1.27979L46.6157 2.95122C46.3684 3.78329 46.3482 4.66636 46.5572 5.50886C46.7662 6.35136 47.1968 7.12262 47.8043 7.74265C48.0203 8.02933 48.1138 8.38998 48.0643 8.7455Z" fill="#F5F5F5"/>
<path d="M14.6326 12.4603L14.0755 14.1132C13.9972 14.346 13.9659 14.5921 13.9834 14.8371C14.0009 15.0821 14.0668 15.3213 14.1774 15.5406C14.2879 15.76 14.4409 15.9552 14.6274 16.1151C14.814 16.2749 15.0303 16.3961 15.264 16.4718C15.4506 16.5296 15.6444 16.5609 15.8398 16.5646C16.2471 16.5846 16.6496 16.4699 16.9852 16.2383C17.3209 16.0067 17.571 15.6711 17.6969 15.2832L18.254 13.6118C18.497 12.7764 18.5151 11.8916 18.3064 11.047C18.0977 10.2024 17.6696 9.42785 17.0655 8.80178C16.9435 8.66983 16.8495 8.51467 16.7888 8.34556C16.7282 8.17644 16.7023 7.99685 16.7126 7.81749L17.2698 6.14606C17.4221 5.67814 17.3825 5.16889 17.1596 4.73015C16.9368 4.2914 16.5489 3.95905 16.0812 3.80606C15.6133 3.65374 15.104 3.69335 14.6653 3.9162C14.2265 4.13905 13.8942 4.52692 13.7412 4.99463L13.184 6.66606C12.9368 7.49813 12.9166 8.3812 13.1256 9.22371C13.3345 10.0662 13.7651 10.8375 14.3726 11.4575C14.5886 11.7442 14.6821 12.1048 14.6326 12.4603Z" fill="#F5F5F5"/>
<path d="M3.49155 8.8959L2.9344 10.5673C2.84446 10.8046 2.80408 11.0577 2.81575 11.3112C2.82742 11.5646 2.8909 11.813 3.00227 12.0409C3.11364 12.2689 3.27055 12.4716 3.4633 12.6366C3.65604 12.8016 3.88056 12.9253 4.12298 13.0002C4.31395 13.0269 4.50771 13.0269 4.69869 13.0002C5.10599 13.0201 5.50853 12.9054 5.84418 12.6738C6.17982 12.4422 6.42991 12.1066 6.55583 11.7188L7.11298 10.0473C7.35634 9.21491 7.37454 8.33285 7.16574 7.4911C6.95693 6.64936 6.52859 5.87806 5.9244 5.2559C5.80105 5.12114 5.70621 4.96283 5.64557 4.7905C5.58494 4.61816 5.55976 4.43535 5.57155 4.25304L6.12869 2.60018C6.20695 2.36734 6.23823 2.12129 6.22074 1.87627C6.20324 1.63125 6.13732 1.39214 6.02677 1.17277C5.91623 0.953413 5.76326 0.75816 5.57674 0.598324C5.39021 0.438487 5.17383 0.317243 4.94012 0.241611C4.47219 0.089282 3.96294 0.128893 3.5242 0.351746C3.08546 0.574598 2.7531 0.962472 2.60012 1.43018L2.04298 3.10161C1.79609 3.93668 1.77606 4.82243 1.98496 5.6678C2.19385 6.51317 2.62413 7.28765 3.23155 7.91161C3.44461 8.19259 3.53806 8.54635 3.49155 8.8959Z" fill="#F5F5F5"/>
</svg>
