<svg xmlns="http://www.w3.org/2000/svg" width="75" height="60" viewBox="0 0 75 60" fill="none">
  <path d="M36.8839 31.125H33.4018C32.8272 31.125 32.3571 30.5977 32.3571 29.9531V26.0469C32.3571 25.4023 32.8272 24.875 33.4018 24.875H36.8839C37.4585 24.875 37.9286 25.4023 37.9286 26.0469V29.9531C37.9286 30.5977 37.4585 31.125 36.8839 31.125ZM46.2857 29.9531V26.0469C46.2857 25.4023 45.8156 24.875 45.2411 24.875H41.7589C41.1844 24.875 40.7143 25.4023 40.7143 26.0469V29.9531C40.7143 30.5977 41.1844 31.125 41.7589 31.125H45.2411C45.8156 31.125 46.2857 30.5977 46.2857 29.9531ZM54.6429 29.9531V26.0469C54.6429 25.4023 54.1728 24.875 53.5982 24.875H50.1161C49.5415 24.875 49.0714 25.4023 49.0714 26.0469V29.9531C49.0714 30.5977 49.5415 31.125 50.1161 31.125H53.5982C54.1728 31.125 54.6429 30.5977 54.6429 29.9531ZM46.2857 39.3281V35.4219C46.2857 34.7773 45.8156 34.25 45.2411 34.25H41.7589C41.1844 34.25 40.7143 34.7773 40.7143 35.4219V39.3281C40.7143 39.9727 41.1844 40.5 41.7589 40.5H45.2411C45.8156 40.5 46.2857 39.9727 46.2857 39.3281ZM37.9286 39.3281V35.4219C37.9286 34.7773 37.4585 34.25 36.8839 34.25H33.4018C32.8272 34.25 32.3571 34.7773 32.3571 35.4219V39.3281C32.3571 39.9727 32.8272 40.5 33.4018 40.5H36.8839C37.4585 40.5 37.9286 39.9727 37.9286 39.3281ZM54.6429 39.3281V35.4219C54.6429 34.7773 54.1728 34.25 53.5982 34.25H50.1161C49.5415 34.25 49.0714 34.7773 49.0714 35.4219V39.3281C49.0714 39.9727 49.5415 40.5 50.1161 40.5H53.5982C54.1728 40.5 54.6429 39.9727 54.6429 39.3281ZM63 13.9375V48.3125C63 50.9004 61.1283 53 58.8214 53H28.1786C25.8717 53 24 50.9004 24 48.3125V13.9375C24 11.3496 25.8717 9.25 28.1786 9.25H32.3571V4.17188C32.3571 3.52734 32.8272 3 33.4018 3H36.8839C37.4585 3 37.9286 3.52734 37.9286 4.17188V9.25H49.0714V4.17188C49.0714 3.52734 49.5415 3 50.1161 3H53.5982C54.1728 3 54.6429 3.52734 54.6429 4.17188V9.25H58.8214C61.1283 9.25 63 11.3496 63 13.9375ZM58.8214 47.7266V18.625H28.1786V47.7266C28.1786 48.0488 28.4136 48.3125 28.7009 48.3125H58.2991C58.5864 48.3125 58.8214 48.0488 58.8214 47.7266Z" fill="#F5F5F5"/>
</svg>