<svg width="33" height="31" viewBox="0 0 56 51" fill="none" xmlns="http://www.w3.org/2000/svg">
<path d="M17.7019 0C15.9183 2.20433 15.0938 4.08894 15.0769 5.92308C15.0601 7.75721 15.8762 9.17909 16.4231 10.0962C16.97 11.0132 17.2139 11.476 17.2308 11.9808C17.2476 12.4856 17.0793 13.369 15.75 15.0769L19.1154 17.7692C20.7981 15.5986 21.5974 13.6466 21.5385 11.8462C21.4796 10.0457 20.655 8.75841 20.125 7.875C19.595 6.99159 19.3762 6.52043 19.3846 5.99039C19.393 5.46034 19.6202 4.47596 21.0673 2.69231L17.7019 0ZM28.4712 0C26.6875 2.20433 25.863 4.08894 25.8462 5.92308C25.8293 7.75721 26.6454 9.17909 27.1923 10.0962C27.7392 11.0132 27.9832 11.476 28 11.9808C28.0168 12.4856 27.8486 13.369 26.5192 15.0769L29.8846 17.7692C31.5673 15.5986 32.3666 13.6466 32.3077 11.8462C32.2488 10.0457 31.4243 8.75841 30.8942 7.875C30.3642 6.99159 30.1454 6.52043 30.1538 5.99039C30.1623 5.46034 30.3894 4.47596 31.8365 2.69231L28.4712 0ZM39.2404 0C37.4567 2.20433 36.6322 4.08894 36.6154 5.92308C36.5986 7.75721 37.4147 9.17909 37.9615 10.0962C38.5084 11.0132 38.7524 11.476 38.7692 11.9808C38.7861 12.4856 38.6178 13.369 37.2885 15.0769L40.6538 17.7692C42.3365 15.5986 43.1358 13.6466 43.0769 11.8462C43.018 10.0457 42.1935 8.75841 41.6635 7.875C41.1334 6.99159 40.9147 6.52043 40.9231 5.99039C40.9315 5.46034 41.1587 4.47596 42.6058 2.69231L39.2404 0ZM0 20.7308V25.0385H2.55769L5.85577 41.3942V41.4615C6.35216 43.6827 8.0012 45.5084 10.1635 46.2404L8.61538 50.8846H12.9231L14.3365 46.5769H41.6635L43.0769 50.8846H47.3846L45.8365 46.2404C48.0913 45.5505 49.8413 43.7416 50.3462 41.4615V41.3942L53.4423 25.0385H56V20.7308H0ZM6.93269 25.0385H49.1346L46.1058 40.5865C45.8534 41.5204 45.0625 42.2692 43.9519 42.2692H12.25C11.0974 42.2692 10.3149 41.5036 10.0962 40.5192L6.93269 25.0385Z" fill="white"/>
</svg>
