<svg width="33" height="34" viewBox="0 0 33 34" fill="none" xmlns="http://www.w3.org/2000/svg">
    <path
        d="M26.6971 11.683C26.7629 12.2122 27.1966 12.6079 27.7123 12.6079H28.7512C29.3642 12.6079 29.8521 12.0555 29.7825 11.4252C29.5028 8.90443 28.3388 6.6215 26.5515 5.16293C25.4319 4.24963 24.6939 2.79428 24.4903 1.15717C24.4252 0.628652 23.9907 0.23291 23.4758 0.23291H22.4368C21.8238 0.23291 21.3353 0.785273 21.4055 1.41562C21.6853 3.93639 22.8493 6.21932 24.6366 7.67789C25.7555 8.59119 26.4941 10.0465 26.6971 11.683ZM19.7362 11.683C19.8019 12.2122 20.2357 12.6079 20.7513 12.6079H21.7903C22.4033 12.6079 22.8912 12.0555 22.8216 11.4252C22.5418 8.90443 21.3778 6.6215 19.5905 5.16293C18.471 4.24963 17.733 2.79428 17.5293 1.15717C17.4642 0.628652 17.0298 0.23291 16.5148 0.23291H15.4758C14.8629 0.23291 14.3743 0.785273 14.4446 1.41562C14.7243 3.93639 15.8883 6.21932 17.6756 7.67789C18.7945 8.59119 19.5332 10.0465 19.7362 11.683ZM30.9375 16.7329H16.5L9.35021 11.3704C8.63622 10.8349 7.76775 10.5454 6.87521 10.5454H4.125C1.84658 10.5454 0 12.392 0 14.6704V29.1079C0 31.3863 1.84658 33.2329 4.125 33.2329H28.875C31.1534 33.2329 33 31.3863 33 29.1079V18.7954C33 17.6565 32.0764 16.7329 30.9375 16.7329ZM8.25 28.5923C8.25 28.8772 8.01926 29.1079 7.73438 29.1079H6.70312C6.41824 29.1079 6.1875 28.8772 6.1875 28.5923V21.3735C6.1875 21.0887 6.41824 20.8579 6.70312 20.8579H7.73438C8.01926 20.8579 8.25 21.0887 8.25 21.3735V28.5923ZM14.4375 28.5923C14.4375 28.8772 14.2068 29.1079 13.9219 29.1079H12.8906C12.6057 29.1079 12.375 28.8772 12.375 28.5923V21.3735C12.375 21.0887 12.6057 20.8579 12.8906 20.8579H13.9219C14.2068 20.8579 14.4375 21.0887 14.4375 21.3735V28.5923ZM20.625 28.5923C20.625 28.8772 20.3943 29.1079 20.1094 29.1079H19.0781C18.7932 29.1079 18.5625 28.8772 18.5625 28.5923V21.3735C18.5625 21.0887 18.7932 20.8579 19.0781 20.8579H20.1094C20.3943 20.8579 20.625 21.0887 20.625 21.3735V28.5923ZM26.8125 28.5923C26.8125 28.8772 26.5818 29.1079 26.2969 29.1079H25.2656C24.9807 29.1079 24.75 28.8772 24.75 28.5923V21.3735C24.75 21.0887 24.9807 20.8579 25.2656 20.8579H26.2969C26.5818 20.8579 26.8125 21.0887 26.8125 21.3735V28.5923ZM4.125 8.48291C6.40342 8.48291 8.25 6.63633 8.25 4.35791C8.25 2.07949 6.40342 0.23291 4.125 0.23291C1.84658 0.23291 0 2.07949 0 4.35791C0 6.63633 1.84658 8.48291 4.125 8.48291Z"
        fill="#F5F5F5" />
</svg>