<svg width="46" height="36" viewBox="0 0 46 36" fill="none" xmlns="http://www.w3.org/2000/svg">
    <path
        d="M0 19.7562H1.64286L4.92857 34.1242C4.92857 35.1174 5.66293 35.9202 6.57143 35.9202H39.4286C40.3371 35.9202 41.0714 35.1174 41.0714 34.1242L44.3571 19.7562H46V14.3682H0V19.7562ZM33.6786 19.7562H36.9643C37.4177 19.7562 37.7857 20.1585 37.7857 20.6542C37.7857 21.1499 37.4177 21.5522 36.9643 21.5522H33.6786C33.2251 21.5522 32.8571 21.1499 32.8571 20.6542C32.8571 20.1585 33.2251 19.7562 33.6786 19.7562ZM33.6786 23.3482H36.9643C37.4177 23.3482 37.7857 23.7505 37.7857 24.2462C37.7857 24.7419 37.4177 25.1442 36.9643 25.1442H33.6786C33.2251 25.1442 32.8571 24.7419 32.8571 24.2462C32.8571 23.7505 33.2251 23.3482 33.6786 23.3482ZM33.6786 26.9402H36.9643C37.4177 26.9402 37.7857 27.3425 37.7857 27.8382C37.7857 28.3339 37.4177 28.7362 36.9643 28.7362H33.6786C33.2251 28.7362 32.8571 28.3339 32.8571 27.8382C32.8571 27.3425 33.2251 26.9402 33.6786 26.9402ZM33.6786 30.5322H36.9643C37.4177 30.5322 37.7857 30.9345 37.7857 31.4302C37.7857 31.9259 37.4177 32.3282 36.9643 32.3282H33.6786C33.2251 32.3282 32.8571 31.9259 32.8571 31.4302C32.8571 30.9345 33.2251 30.5322 33.6786 30.5322ZM25.4643 19.7562H28.75C29.2034 19.7562 29.5714 20.1585 29.5714 20.6542C29.5714 21.1499 29.2034 21.5522 28.75 21.5522H25.4643C25.0109 21.5522 24.6429 21.1499 24.6429 20.6542C24.6429 20.1585 25.0109 19.7562 25.4643 19.7562ZM25.4643 23.3482H28.75C29.2034 23.3482 29.5714 23.7505 29.5714 24.2462C29.5714 24.7419 29.2034 25.1442 28.75 25.1442H25.4643C25.0109 25.1442 24.6429 24.7419 24.6429 24.2462C24.6429 23.7505 25.0109 23.3482 25.4643 23.3482ZM25.4643 26.9402H28.75C29.2034 26.9402 29.5714 27.3425 29.5714 27.8382C29.5714 28.3339 29.2034 28.7362 28.75 28.7362H25.4643C25.0109 28.7362 24.6429 28.3339 24.6429 27.8382C24.6429 27.3425 25.0109 26.9402 25.4643 26.9402ZM25.4643 30.5322H28.75C29.2034 30.5322 29.5714 30.9345 29.5714 31.4302C29.5714 31.9259 29.2034 32.3282 28.75 32.3282H25.4643C25.0109 32.3282 24.6429 31.9259 24.6429 31.4302C24.6429 30.9345 25.0109 30.5322 25.4643 30.5322ZM17.25 19.7562H20.5357C20.9891 19.7562 21.3571 20.1585 21.3571 20.6542C21.3571 21.1499 20.9891 21.5522 20.5357 21.5522H17.25C16.7966 21.5522 16.4286 21.1499 16.4286 20.6542C16.4286 20.1585 16.7966 19.7562 17.25 19.7562ZM17.25 23.3482H20.5357C20.9891 23.3482 21.3571 23.7505 21.3571 24.2462C21.3571 24.7419 20.9891 25.1442 20.5357 25.1442H17.25C16.7966 25.1442 16.4286 24.7419 16.4286 24.2462C16.4286 23.7505 16.7966 23.3482 17.25 23.3482ZM17.25 26.9402H20.5357C20.9891 26.9402 21.3571 27.3425 21.3571 27.8382C21.3571 28.3339 20.9891 28.7362 20.5357 28.7362H17.25C16.7966 28.7362 16.4286 28.3339 16.4286 27.8382C16.4286 27.3425 16.7966 26.9402 17.25 26.9402ZM17.25 30.5322H20.5357C20.9891 30.5322 21.3571 30.9345 21.3571 31.4302C21.3571 31.9259 20.9891 32.3282 20.5357 32.3282H17.25C16.7966 32.3282 16.4286 31.9259 16.4286 31.4302C16.4286 30.9345 16.7966 30.5322 17.25 30.5322ZM9.03571 19.7562H12.3214C12.7749 19.7562 13.1429 20.1585 13.1429 20.6542C13.1429 21.1499 12.7749 21.5522 12.3214 21.5522H9.03571C8.58229 21.5522 8.21429 21.1499 8.21429 20.6542C8.21429 20.1585 8.58229 19.7562 9.03571 19.7562ZM9.03571 23.3482H12.3214C12.7749 23.3482 13.1429 23.7505 13.1429 24.2462C13.1429 24.7419 12.7749 25.1442 12.3214 25.1442H9.03571C8.58229 25.1442 8.21429 24.7419 8.21429 24.2462C8.21429 23.7505 8.58229 23.3482 9.03571 23.3482ZM9.03571 26.9402H12.3214C12.7749 26.9402 13.1429 27.3425 13.1429 27.8382C13.1429 28.3339 12.7749 28.7362 12.3214 28.7362H9.03571C8.58229 28.7362 8.21429 28.3339 8.21429 27.8382C8.21429 27.3425 8.58229 26.9402 9.03571 26.9402ZM9.03571 30.5322H12.3214C12.7749 30.5322 13.1429 30.9345 13.1429 31.4302C13.1429 31.9259 12.7749 32.3282 12.3214 32.3282H9.03571C8.58229 32.3282 8.21429 31.9259 8.21429 31.4302C8.21429 30.9345 8.58229 30.5322 9.03571 30.5322Z"
        fill="#F5F5F5" />
    <path
        d="M5.75014 12.5724H41.0716C41.525 12.5724 41.893 12.1701 41.893 11.6744C41.893 11.1787 41.525 10.7764 41.0716 10.7764H5.75014C5.29671 10.7764 4.92871 11.1787 4.92871 11.6744C4.92871 12.1701 5.29671 12.5724 5.75014 12.5724Z"
        fill="#F5F5F5" />
    <path
        d="M4.92871 8.0816C4.92871 8.57729 5.29671 8.9796 5.75014 8.9796H36.143C36.5964 8.9796 36.9644 8.57729 36.9644 8.0816C36.9644 7.5859 36.5964 7.18359 36.143 7.18359H5.75014C5.29671 7.18359 4.92871 7.5859 4.92871 8.0816Z"
        fill="#F5F5F5" />
    <path
        d="M8.21401 5.3878H36.1426C36.596 5.3878 36.964 4.9855 36.964 4.4898C36.964 3.9941 36.596 3.5918 36.1426 3.5918H8.21401C7.76058 3.5918 7.39258 3.9941 7.39258 4.4898C7.39258 4.9855 7.76058 5.3878 8.21401 5.3878Z"
        fill="#F5F5F5" />
    <path
        d="M8.21401 1.796H31.214C31.6674 1.796 32.0354 1.3937 32.0354 0.898001C32.0354 0.402305 31.6674 0 31.214 0H8.21401C7.76058 0 7.39258 0.402305 7.39258 0.898001C7.39258 1.3937 7.76058 1.796 8.21401 1.796Z"
        fill="#F5F5F5" />
</svg>