<svg width="50" height="45" viewBox="0 0 50 45" fill="none" xmlns="http://www.w3.org/2000/svg">
<path d="M21.9034 11.8582L7.50059 23.7206V36.5235C7.50059 36.855 7.63228 37.1729 7.86668 37.4073C8.10108 37.6417 8.419 37.7734 8.7505 37.7734L17.5045 37.7508C17.8349 37.7491 18.1512 37.6167 18.3843 37.3825C18.6173 37.1483 18.7482 36.8313 18.7482 36.5009V29.0241C18.7482 28.6926 18.8798 28.3747 19.1143 28.1403C19.3487 27.9059 19.6666 27.7742 19.9981 27.7742H24.9977C25.3292 27.7742 25.6471 27.9059 25.8815 28.1403C26.1159 28.3747 26.2476 28.6926 26.2476 29.0241V36.4954C26.2471 36.6599 26.279 36.8228 26.3416 36.9749C26.4042 37.127 26.4962 37.2653 26.6123 37.3817C26.7284 37.4982 26.8664 37.5906 27.0183 37.6537C27.1702 37.7168 27.333 37.7492 27.4975 37.7492L36.2484 37.7734C36.5799 37.7734 36.8978 37.6417 37.1322 37.4073C37.3666 37.1729 37.4983 36.855 37.4983 36.5235V23.712L23.0986 11.8582C22.9293 11.7218 22.7184 11.6474 22.501 11.6474C22.2836 11.6474 22.0727 11.7218 21.9034 11.8582ZM44.654 19.9209L38.1232 14.5377V3.71746C38.1232 3.46884 38.0245 3.2304 37.8487 3.0546C37.6729 2.87879 37.4344 2.78003 37.1858 2.78003H32.8111C32.5625 2.78003 32.3241 2.87879 32.1483 3.0546C31.9725 3.2304 31.8737 3.46884 31.8737 3.71746V9.38968L24.8797 3.63543C24.2085 3.08311 23.3663 2.78113 22.4971 2.78113C21.6279 2.78113 20.7857 3.08311 20.1145 3.63543L0.340207 19.9209C0.245283 19.9994 0.166748 20.0957 0.10909 20.2046C0.0514319 20.3134 0.0157806 20.4325 0.00417324 20.5551C-0.00743416 20.6777 0.0052298 20.8014 0.0414415 20.9191C0.0776532 21.0368 0.136703 21.1462 0.215217 21.2411L2.20725 23.6628C2.28555 23.758 2.38186 23.8368 2.49066 23.8948C2.59947 23.9527 2.71863 23.9886 2.84134 24.0005C2.96404 24.0123 3.08787 23.9998 3.20574 23.9637C3.32361 23.9276 3.4332 23.8686 3.52824 23.7901L21.9034 8.65536C22.0727 8.5189 22.2836 8.44449 22.501 8.44449C22.7184 8.44449 22.9293 8.5189 23.0986 8.65536L41.4745 23.7901C41.5694 23.8686 41.6788 23.9277 41.7965 23.9639C41.9142 24.0001 42.0379 24.0128 42.1605 24.0012C42.2831 23.9896 42.4023 23.9539 42.5111 23.8963C42.6199 23.8386 42.7163 23.7601 42.7948 23.6651L44.7868 21.2435C44.8652 21.148 44.924 21.038 44.9598 20.9198C44.9956 20.8016 45.0077 20.6775 44.9953 20.5546C44.983 20.4317 44.9465 20.3124 44.8879 20.2037C44.8293 20.0949 44.7498 19.9988 44.654 19.9209Z" fill="#F5F5F5"/>
</svg>
