<svg xmlns="http://www.w3.org/2000/svg" width="45" height="52" viewBox="0 0 45 52" fill="none">
  <path d="M23 23C27.7344 23 31.5714 18.5234 31.5714 13C31.5714 7.47656 27.7344 3 23 3C18.2656 3 14.4286 7.47656 14.4286 13C14.4286 18.5234 18.2656 23 23 23ZM29 25.5H27.8817C26.3951 26.2969 24.7411 26.75 23 26.75C21.2589 26.75 19.6116 26.2969 18.1183 25.5H17C12.0312 25.5 8 30.2031 8 36V39.25C8 41.3203 9.43973 43 11.2143 43H34.7857C36.5603 43 38 41.3203 38 39.25V36C38 30.2031 33.9688 25.5 29 25.5Z" fill="#F5F5F5"/>
</svg>