<svg width="50" height="40" viewBox="0 0 50 40" fill="none" xmlns="http://www.w3.org/2000/svg">
<path d="M42.1953 0.952393H4.69531C2.625 0.952393 0.945312 2.64808 0.945312 4.73811V32.5C0.945312 34.59 2.625 36.2857 4.69531 36.2857H42.1953C44.2656 36.2857 45.9453 34.59 45.9453 32.5V4.73811C45.9453 2.64808 44.2656 0.952393 42.1953 0.952393ZM14.6953 8.52382C17.4531 8.52382 19.6953 10.7874 19.6953 13.5714C19.6953 16.3555 17.4531 18.6191 14.6953 18.6191C11.9375 18.6191 9.69531 16.3555 9.69531 13.5714C9.69531 10.7874 11.9375 8.52382 14.6953 8.52382ZM23.4453 27.2C23.4453 28.036 22.6641 28.7143 21.6953 28.7143H7.69531C6.72656 28.7143 5.94531 28.036 5.94531 27.2V25.6857C5.94531 23.1777 8.29688 21.1429 11.1953 21.1429H11.5859C12.5469 21.5451 13.5938 21.7738 14.6953 21.7738C15.7969 21.7738 16.8516 21.5451 17.8047 21.1429H18.1953C21.0938 21.1429 23.4453 23.1777 23.4453 25.6857V27.2ZM40.9453 23.0357C40.9453 23.3827 40.6641 23.6667 40.3203 23.6667H29.0703C28.7266 23.6667 28.4453 23.3827 28.4453 23.0357V21.7738C28.4453 21.4268 28.7266 21.1429 29.0703 21.1429H40.3203C40.6641 21.1429 40.9453 21.4268 40.9453 21.7738V23.0357ZM40.9453 17.9881C40.9453 18.3351 40.6641 18.6191 40.3203 18.6191H29.0703C28.7266 18.6191 28.4453 18.3351 28.4453 17.9881V16.7262C28.4453 16.3792 28.7266 16.0952 29.0703 16.0952H40.3203C40.6641 16.0952 40.9453 16.3792 40.9453 16.7262V17.9881ZM40.9453 12.9405C40.9453 13.2875 40.6641 13.5714 40.3203 13.5714H29.0703C28.7266 13.5714 28.4453 13.2875 28.4453 12.9405V11.6786C28.4453 11.3316 28.7266 11.0476 29.0703 11.0476H40.3203C40.6641 11.0476 40.9453 11.3316 40.9453 11.6786V12.9405Z" fill="#F5F5F5"/>
</svg>
