<svg width="43" height="43" viewBox="0 0 43 43" fill="none" xmlns="http://www.w3.org/2000/svg">
<g clip-path="url(#clip0_546_448)">
<path d="M42.3281 21.5C42.3281 33.0059 32.9891 42.3281 21.4664 42.3281C11.909 42.3281 3.86328 35.9201 1.39414 27.1773L9.38945 30.4779C9.92695 33.1738 12.3205 35.2146 15.176 35.2146C18.4682 35.2146 21.2145 32.4936 21.0717 29.0418L28.1684 23.9859C32.5439 24.0951 36.2141 20.551 36.2141 16.1334C36.2141 11.7998 32.6867 8.28086 28.3447 8.28086C24.0027 8.28086 20.4754 11.8082 20.4754 16.1334V16.2342L15.5035 23.4316C14.2018 23.3561 12.9252 23.7172 11.8502 24.4479L0.671875 19.8287C1.52852 9.10391 10.5064 0.671875 21.4664 0.671875C32.9891 0.671875 42.3281 9.99414 42.3281 21.5ZM13.7482 32.2752L11.1867 31.217C11.6574 32.1944 12.4702 32.9653 13.4711 33.3838C15.7303 34.3244 18.3254 33.2494 19.266 30.9986C19.7195 29.9068 19.7279 28.7059 19.2744 27.6141C18.8209 26.5223 17.9727 25.6656 16.8809 25.2121C15.7975 24.7586 14.6385 24.7754 13.6139 25.1617L16.2594 26.2535C17.9223 26.9422 18.7117 28.8486 18.0146 30.5115C17.3176 32.1828 15.4111 32.9639 13.7482 32.2752ZM28.3447 21.3656C25.4557 21.3656 23.1041 19.0141 23.1041 16.1334C23.1041 13.2527 25.4557 10.9012 28.3447 10.9012C31.2338 10.9012 33.5854 13.2527 33.5854 16.1334C33.5854 19.0141 31.2422 21.3656 28.3447 21.3656ZM28.3531 20.0555C30.5283 20.0555 32.292 18.2918 32.292 16.125C32.292 13.9498 30.5283 12.1945 28.3531 12.1945C26.1779 12.1945 24.4143 13.9582 24.4143 16.125C24.4227 18.2918 26.1863 20.0555 28.3531 20.0555Z" fill="#F5F5F5"/>
</g>
<defs>
<clipPath id="clip0_546_448">
<rect width="43" height="43" fill="white"/>
</clipPath>
</defs>
</svg>
