
<svg width="40" height="38" viewBox="0 0 40 38" fill="none" xmlns="http://www.w3.org/2000/svg">
    <path
        d="M35.7486 18.0573L34.0463 11.0772C33.3034 8.18123 30.8273 6.07504 28.1036 6.07504H27.237V3.44231C27.237 1.98854 26.1282 0.80957 24.7609 0.80957H14.8566C13.4893 0.80957 12.3805 1.98854 12.3805 3.44231V6.07504H11.5138C8.79013 6.07504 6.31403 8.18123 5.57121 11.0772L3.86889 18.0573C1.65666 18.5838 0 20.676 0 23.1878V27.1369C0 29.081 1.00204 30.7602 2.47609 31.6718V35.0351C2.47609 36.4889 3.58492 37.6679 4.95218 37.6679H7.42828C8.79554 37.6679 9.90437 36.4889 9.90437 35.0351V32.4024H29.7131V35.0351C29.7131 36.4889 30.8219 37.6679 32.1892 37.6679H34.6653C36.0326 37.6679 37.1414 36.4889 37.1414 35.0351V31.6718C38.6154 30.7594 39.6175 29.0802 39.6175 27.1369V23.1878C39.6175 20.676 37.9608 18.5838 35.7486 18.0573ZM7.42828 27.1369C6.06101 27.1369 4.95218 25.958 4.95218 24.5042C4.95218 23.0504 6.06101 21.8715 7.42828 21.8715C8.79554 21.8715 9.90437 23.0504 9.90437 24.5042C9.90437 25.958 8.79554 27.1369 7.42828 27.1369ZM9.01839 17.9224L10.3493 12.4627C10.5218 11.7914 11.0913 11.3405 11.5146 11.3405H28.1044C28.5277 11.3405 29.0972 11.7914 29.2535 12.3985L30.5991 17.9224H9.01839ZM32.1892 27.1369C30.8219 27.1369 29.7131 25.958 29.7131 24.5042C29.7131 23.0504 30.8219 21.8715 32.1892 21.8715C33.5565 21.8715 34.6653 23.0504 34.6653 24.5042C34.6653 25.958 33.5565 27.1369 32.1892 27.1369Z"
        fill="#F5F5F5" />
</svg>