<svg width="26" height="30" viewBox="0 0 26 30" fill="none" xmlns="http://www.w3.org/2000/svg">
<path d="M8.43766 16.3567H6.15721C5.78094 16.3567 5.47307 16.05 5.47307 15.6751V13.4034C5.47307 13.0285 5.78094 12.7219 6.15721 12.7219H8.43766C8.81393 12.7219 9.12179 13.0285 9.12179 13.4034V15.6751C9.12179 16.05 8.81393 16.3567 8.43766 16.3567ZM14.5949 15.6751V13.4034C14.5949 13.0285 14.287 12.7219 13.9107 12.7219H11.6303C11.254 12.7219 10.9461 13.0285 10.9461 13.4034V15.6751C10.9461 16.05 11.254 16.3567 11.6303 16.3567H13.9107C14.287 16.3567 14.5949 16.05 14.5949 15.6751ZM20.0679 15.6751V13.4034C20.0679 13.0285 19.7601 12.7219 19.3838 12.7219H17.1034C16.7271 12.7219 16.4192 13.0285 16.4192 13.4034V15.6751C16.4192 16.05 16.7271 16.3567 17.1034 16.3567H19.3838C19.7601 16.3567 20.0679 16.05 20.0679 15.6751ZM14.5949 21.1274V18.8556C14.5949 18.4808 14.287 18.1741 13.9107 18.1741H11.6303C11.254 18.1741 10.9461 18.4808 10.9461 18.8556V21.1274C10.9461 21.5022 11.254 21.8089 11.6303 21.8089H13.9107C14.287 21.8089 14.5949 21.5022 14.5949 21.1274ZM9.12179 21.1274V18.8556C9.12179 18.4808 8.81393 18.1741 8.43766 18.1741H6.15721C5.78094 18.1741 5.47307 18.4808 5.47307 18.8556V21.1274C5.47307 21.5022 5.78094 21.8089 6.15721 21.8089H8.43766C8.81393 21.8089 9.12179 21.5022 9.12179 21.1274ZM20.0679 21.1274V18.8556C20.0679 18.4808 19.7601 18.1741 19.3838 18.1741H17.1034C16.7271 18.1741 16.4192 18.4808 16.4192 18.8556V21.1274C16.4192 21.5022 16.7271 21.8089 17.1034 21.8089H19.3838C19.7601 21.8089 20.0679 21.5022 20.0679 21.1274ZM25.541 6.36093V26.3524C25.541 27.8574 24.3153 29.0785 22.8045 29.0785H2.73654C1.22574 29.0785 0 27.8574 0 26.3524V6.36093C0 4.85589 1.22574 3.63481 2.73654 3.63481H5.47307V0.681528C5.47307 0.306687 5.78094 0 6.15721 0H8.43766C8.81393 0 9.12179 0.306687 9.12179 0.681528V3.63481H16.4192V0.681528C16.4192 0.306687 16.7271 0 17.1034 0H19.3838C19.7601 0 20.0679 0.306687 20.0679 0.681528V3.63481H22.8045C24.3153 3.63481 25.541 4.85589 25.541 6.36093ZM22.8045 26.0116V9.08704H2.73654V26.0116C2.73654 26.1991 2.89047 26.3524 3.0786 26.3524H22.4624C22.6505 26.3524 22.8045 26.1991 22.8045 26.0116Z" fill="#2072BC"/>
</svg>
