<svg xmlns="http://www.w3.org/2000/svg" width="48" height="48" viewBox="0 0 48 48" fill="none">
  <path d="M26.88 0V1.92H30.72L26.88 5.76V7.68H33.6V5.76H29.28L33.12 1.92V0H26.88ZM15.36 9.6V11.52H20.64L15.36 17.28V19.2H24V17.28H17.76L23.04 11.52V9.6H15.36ZM2.88 16.32C1.29375 16.32 0 17.6137 0 19.2V48H5.76V43.2H42.24V48H48V36.48H5.76V19.2C5.76 17.6137 4.46625 16.32 2.88 16.32ZM11.52 24.96C8.8725 24.96 6.72 27.1125 6.72 29.76C6.72 32.4075 8.8725 34.56 11.52 34.56C14.1675 34.56 16.32 32.4075 16.32 29.76C16.32 27.1125 14.1675 24.96 11.52 24.96ZM18.24 24.96C17.7113 24.96 17.28 25.3875 17.28 25.92V34.56H48V29.76C48 27.1125 45.8475 24.96 43.2 24.96H18.24Z" fill="#1D4C77"/>
</svg>