<svg xmlns="http://www.w3.org/2000/svg" width="48" height="45" viewBox="0 0 48 45" fill="none">
  <path d="M9.14286 0C7.88229 0 6.85714 0.8775 6.85714 1.95652H3.42857C1.53829 1.95652 0 3.27326 0 4.8913V39.1304C0 40.7485 1.53829 42.0652 3.42857 42.0652H5.71429V43.0435C5.71429 44.1225 6.73943 45 8 45H11.4286C12.6891 45 13.7143 44.1225 13.7143 43.0435V42.0652H34.2857V43.0435C34.2857 44.1225 35.3109 45 36.5714 45H40C41.2606 45 42.2857 44.1225 42.2857 43.0435V42.0652H44.5714C46.4617 42.0652 48 40.7485 48 39.1304V4.8913C48 3.27326 46.4617 1.95652 44.5714 1.95652H41.1429C41.1429 0.8775 40.1177 0 38.8571 0H32C30.7394 0 29.7143 0.8775 29.7143 1.95652H19.4286C19.4286 0.8775 18.4034 0 17.1429 0H9.14286ZM6.85714 5.86957C8.12 5.86957 9.14286 6.74511 9.14286 7.82609C9.14286 8.90707 8.12 9.78261 6.85714 9.78261C5.59429 9.78261 4.57143 8.90707 4.57143 7.82609C4.57143 6.74511 5.59429 5.86957 6.85714 5.86957ZM13.7143 5.86957C14.9771 5.86957 16 6.74511 16 7.82609C16 8.90707 14.9771 9.78261 13.7143 9.78261C12.4514 9.78261 11.4286 8.90707 11.4286 7.82609C11.4286 6.74511 12.4514 5.86957 13.7143 5.86957ZM20.5714 5.86957C21.8343 5.86957 22.8571 6.74511 22.8571 7.82609C22.8571 8.90707 21.8343 9.78261 20.5714 9.78261C19.3086 9.78261 18.2857 8.90707 18.2857 7.82609C18.2857 6.74511 19.3086 5.86957 20.5714 5.86957ZM27.4286 5.86957C28.6914 5.86957 29.7143 6.74511 29.7143 7.82609C29.7143 8.90707 28.6914 9.78261 27.4286 9.78261C26.1657 9.78261 25.1429 8.90707 25.1429 7.82609C25.1429 6.74511 26.1657 5.86957 27.4286 5.86957ZM41.1429 5.86957C42.4057 5.86957 43.4286 6.74511 43.4286 7.82609C43.4286 8.90707 42.4057 9.78261 41.1429 9.78261C39.88 9.78261 38.8571 8.90707 38.8571 7.82609C38.8571 6.74511 39.88 5.86957 41.1429 5.86957ZM6.85714 12.7174H41.1429V30.3261H34.5089C35.7825 29.1123 36.5714 27.4335 36.5714 25.5819V25.2858C36.5714 24.3241 36.1411 23.0583 35.596 22.0223C35.7686 21.4549 35.9066 20.8594 35.9888 20.2187C36.046 19.7804 35.9405 19.347 35.7165 18.9576L37.2076 17.4941C37.3607 17.5625 37.5291 17.6087 37.7143 17.6087C38.3451 17.6087 38.8571 17.1704 38.8571 16.6304C38.8571 16.0904 38.3451 15.6522 37.7143 15.6522C37.7143 15.1122 37.2023 14.6739 36.5714 14.6739C35.9406 14.6739 35.4286 15.1122 35.4286 15.6522C35.4286 15.8224 35.4934 15.9737 35.5826 16.1126L33.9464 17.7157C33.4653 17.6022 32.9609 17.5876 32.4866 17.7119C31.658 17.929 30.8828 18.2268 30.1696 18.5927C29.1548 19.2755 27.7173 20.5444 27.1585 22.5019C27.0305 22.949 26.5634 23.2471 26.0491 23.2471C25.9588 23.2471 25.8682 23.2389 25.7768 23.2203C25.1642 23.0922 24.7878 22.562 24.9375 22.0376C25.3478 20.5986 26.1146 19.4635 26.9397 18.587H19.2723C14.9466 18.587 11.4286 21.9596 11.4286 26.1035C11.4286 27.7362 12.0999 29.2202 13.1875 30.3261H6.85714V12.7174ZM17.1429 25.4348H20.5714C21.2034 25.4348 21.7143 25.8721 21.7143 26.413C21.7143 26.954 21.2034 27.3913 20.5714 27.3913H18.2857C18.2857 27.9323 17.7749 28.3696 17.1429 28.3696C16.5109 28.3696 16 27.9323 16 27.3913V26.413C16 25.8721 16.5109 25.4348 17.1429 25.4348ZM6.85714 32.2826H41.1429V36.1957H6.85714V32.2826Z" fill="#1D4C77"/>
</svg>