<svg width="50" height="35" viewBox="0 0 50 35" fill="none" xmlns="http://www.w3.org/2000/svg">
<path d="M1 29.7678C1 30.9921 2.00758 31.9849 3.25 31.9849H43.75C44.9924 31.9849 46 30.9921 46 29.7678V7.59723H1V29.7678ZM32.5 15.3569C32.5 14.7445 33.0034 14.2484 33.625 14.2484H40.375C40.9966 14.2484 41.5 14.7445 41.5 15.3569V17.574C41.5 18.1865 40.9966 18.6825 40.375 18.6825H33.625C33.0034 18.6825 32.5 18.1865 32.5 17.574V15.3569ZM32.5 23.6709C32.5 23.3647 32.7517 23.1167 33.0625 23.1167H40.9375C41.2483 23.1167 41.5 23.3647 41.5 23.6709V24.7794C41.5 25.0857 41.2483 25.3337 40.9375 25.3337H33.0625C32.7517 25.3337 32.5 25.0857 32.5 24.7794V23.6709ZM5.5 17.0197C5.5 16.7135 5.75172 16.4655 6.0625 16.4655H27.4375C27.7483 16.4655 28 16.7135 28 17.0197V18.1283C28 18.4345 27.7483 18.6825 27.4375 18.6825H6.0625C5.75172 18.6825 5.5 18.4345 5.5 18.1283V17.0197ZM5.5 23.6709C5.5 23.3647 5.75172 23.1167 6.0625 23.1167H18.4375C18.7483 23.1167 19 23.3647 19 23.6709V24.7794C19 25.0857 18.7483 25.3337 18.4375 25.3337H6.0625C5.75172 25.3337 5.5 25.0857 5.5 24.7794V23.6709ZM44.875 0.946045H2.125C1.50344 0.946045 1 1.44211 1 2.05458V5.38017H46V2.05458C46 1.44211 45.4966 0.946045 44.875 0.946045Z" fill="#1D4C77"/>
</svg>
