<svg xmlns="http://www.w3.org/2000/svg" width="30" height="40" viewBox="0 0 30 40" fill="none">
                            <path d="M15 20C19.7344 20 23.5714 15.5234 23.5714 10C23.5714 4.47656 19.7344 0 15 0C10.2656 0 6.42857 4.47656 6.42857 10C6.42857 15.5234 10.2656 20 15 20ZM21 22.5H19.8817C18.3951 23.2969 16.7411 23.75 15 23.75C13.2589 23.75 11.6116 23.2969 10.1183 22.5H9C4.03125 22.5 0 27.2031 0 33V36.25C0 38.3203 1.43973 40 3.21429 40H26.7857C28.5603 40 30 38.3203 30 36.25V33C30 27.2031 25.9688 22.5 21 22.5Z" fill="#1D4C77" />
</svg>