<svg xmlns="http://www.w3.org/2000/svg" width="30" height="33" viewBox="0 0 30 33" fill="none">
  <path d="M26.1071 3.78572H19.4107L18.8862 2.7422C18.775 2.5191 18.6039 2.33144 18.3919 2.20032C18.18 2.0692 17.9356 1.99983 17.6864 2.00001H11.308C11.0594 1.99905 10.8155 2.06817 10.6042 2.19943C10.393 2.3307 10.2231 2.5188 10.1138 2.7422L9.58929 3.78572H2.89286C2.65606 3.78572 2.42895 3.87979 2.26151 4.04724C2.09407 4.21468 2 4.44178 2 4.67858V6.4643C2 6.7011 2.09407 6.9282 2.26151 7.09564C2.42895 7.26308 2.65606 7.35715 2.89286 7.35715H26.1071C26.3439 7.35715 26.571 7.26308 26.7385 7.09564C26.9059 6.9282 27 6.7011 27 6.4643V4.67858C27 4.44178 26.9059 4.21468 26.7385 4.04724C26.571 3.87979 26.3439 3.78572 26.1071 3.78572ZM4.96875 28.0603C5.01134 28.7403 5.31147 29.3786 5.80807 29.8451C6.30466 30.3116 6.96038 30.5714 7.64174 30.5714H21.3583C22.0396 30.5714 22.6953 30.3116 23.1919 29.8451C23.6885 29.3786 23.9887 28.7403 24.0312 28.0603L25.2143 9.14287H3.78571L4.96875 28.0603Z" fill="#2072BC"/>
</svg>