<svg xmlns="http://www.w3.org/2000/svg" width="50" height="30" viewBox="0 0 50 30" fill="none">
  <path d="M12.5 12.5V17.5H37.5V12.5C37.5 9.74219 39.7422 7.5 42.5 7.5H45C45 3.35938 41.6406 0 37.5 0H12.5C8.35938 0 5 3.35938 5 7.5H7.5C10.2578 7.5 12.5 9.74219 12.5 12.5ZM45 10H42.5C41.1172 10 40 11.1172 40 12.5V20H10V12.5C10 11.1172 8.88281 10 7.5 10H5C2.24219 10 0 12.2422 0 15C0 16.8438 1.01562 18.4375 2.5 19.3047V28.75C2.5 29.4375 3.0625 30 3.75 30H8.75C9.4375 30 10 29.4375 10 28.75V27.5H40V28.75C40 29.4375 40.5625 30 41.25 30H46.25C46.9375 30 47.5 29.4375 47.5 28.75V19.3047C48.9844 18.4375 50 16.8438 50 15C50 12.2422 47.7578 10 45 10Z" fill="#1D4C77"/>
</svg>