<svg xmlns="http://www.w3.org/2000/svg" width="35" height="35" viewBox="0 0 35 35" fill="none">
<path d="M22.4219 16.5C22.4219 19.2207 20.2207 21.4219 17.5 21.4219C14.7793 21.4219 12.5781 19.2207 12.5781 16.5C12.5781 13.7793 14.7793 11.5781 17.5 11.5781C20.2207 11.5781 22.4219 13.7793 22.4219 16.5ZM29.5312 11.5781C26.8105 11.5781 24.6094 13.7793 24.6094 16.5C24.6094 19.2207 26.8105 21.4219 29.5312 21.4219C32.252 21.4219 34.4531 19.2207 34.4531 16.5C34.4531 13.7793 32.252 11.5781 29.5312 11.5781ZM5.46875 11.5781C2.74805 11.5781 0.546875 13.7793 0.546875 16.5C0.546875 19.2207 2.74805 21.4219 5.46875 21.4219C8.18945 21.4219 10.3906 19.2207 10.3906 16.5C10.3906 13.7793 8.18945 11.5781 5.46875 11.5781Z" fill="#1D4C77"/>
</svg>