<svg xmlns="http://www.w3.org/2000/svg" width="48" height="48" viewBox="0 0 48 48"
                                    fill="none">
                                    <path d="M8.16797 0.655273H39.8325V21.6084H8.16797V0.655273Z" fill="#1D4C77" />
                                    <path d="M11.168 3.65527H22.5001V13.3835H11.168V3.65527Z" fill="#F3F5F9" />
                                    <path d="M11.168 16.3838H22.5001V21.3537H11.168V16.3838Z" fill="#F3F5F9" />
                                    <path d="M25.5 16.3838H36.8321V21.3537H25.5V16.3838Z" fill="#F3F5F9" />
                                    <path d="M25.5 3.65527H36.8321V13.3835H25.5V3.65527Z" fill="#F3F5F9" />
                                    <path
                                        d="M39.8321 7.9209C39.7459 7.92085 39.6605 7.93779 39.5808 7.97075C39.5012 8.00371 39.4288 8.05205 39.3679 8.113C39.3069 8.17395 39.2586 8.24631 39.2256 8.32595C39.1927 8.4056 39.1757 8.49095 39.1758 8.57715V10.2189C39.1758 10.3929 39.2449 10.5599 39.368 10.6829C39.4911 10.806 39.658 10.8751 39.8321 10.8751C40.0061 10.8751 40.173 10.806 40.2961 10.6829C40.4192 10.5599 40.4883 10.3929 40.4883 10.2189V8.57715C40.4883 8.4031 40.4192 8.23618 40.2961 8.11311C40.173 7.99004 40.0061 7.9209 39.8321 7.9209Z"
                                        fill="#1D4C77" />
                                    <path
                                        d="M11.168 3C10.9939 3 10.827 3.06914 10.7039 3.19221C10.5809 3.31528 10.5117 3.4822 10.5117 3.65625V13.3837C10.5118 13.5578 10.581 13.7246 10.704 13.8477C10.8271 13.9707 10.994 14.0399 11.168 14.04H22.5001C22.6741 14.0399 22.841 13.9707 22.964 13.8477C23.0871 13.7246 23.1563 13.5578 23.1564 13.3837V3.65512C23.1561 3.48127 23.0868 3.31464 22.9637 3.19181C22.8407 3.06899 22.674 3 22.5001 3H11.168ZM21.8438 12.7275H11.8243V4.3125H21.8438V12.7275Z"
                                        fill="#1D4C77" />
                                    <path
                                        d="M7.09183 25.7324C7.82771 28.5877 8.18987 31.5263 8.16924 34.4748C8.18985 37.4231 7.82769 40.3617 7.09183 43.2168H4.40637C3.67051 40.3617 3.30835 37.4231 3.32896 34.4748C3.30833 31.5263 3.67049 28.5877 4.40637 25.7324H7.09183Z"
                                        fill="#1D4C77" />
                                    <path
                                        d="M16.2168 25.7324C16.9527 28.5877 17.3149 31.5263 17.2942 34.4748C17.3148 37.4231 16.9527 40.3617 16.2168 43.2168H13.5314C12.7955 40.3617 12.4333 37.4231 12.454 34.4748C12.4333 31.5263 12.7955 28.5877 13.5314 25.7324H16.2168Z"
                                        fill="#1D4C77" />
                                    <path
                                        d="M25.3457 25.7324C26.0819 28.5876 26.4442 31.5263 26.4235 34.4748C26.4441 37.4232 26.0818 40.3617 25.3457 43.2168H22.6606C21.9245 40.3617 21.5622 37.4232 21.5829 34.4748C21.5622 31.5263 21.9245 28.5876 22.6606 25.7324H25.3457Z"
                                        fill="#1D4C77" />
                                    <path
                                        d="M34.4707 25.7324C35.2066 28.5877 35.5688 31.5263 35.5481 34.4748C35.5688 37.4231 35.2066 40.3617 34.4707 43.2168H31.7853C31.0494 40.3617 30.6873 37.4231 30.7079 34.4748C30.6872 31.5263 31.0494 28.5877 31.7853 25.7324H34.4707Z"
                                        fill="#1D4C77" />
                                    <path
                                        d="M43.5957 25.7324C44.3316 28.5877 44.6938 31.5263 44.6731 34.4748C44.6938 37.4231 44.3316 40.3617 43.5957 43.2168H40.9103C40.1744 40.3617 39.8123 37.4231 39.8329 34.4748C39.8122 31.5263 40.1744 28.5877 40.9103 25.7324H43.5957Z"
                                        fill="#1D4C77" />
                                    <path d="M0.65625 21.6084H47.3452V25.7334H0.65625V21.6084Z" fill="#1D4C77" />
                                    <path
                                        d="M25.5 3C25.326 3 25.159 3.06914 25.036 3.19221C24.9129 3.31528 24.8438 3.4822 24.8438 3.65625V13.3837C24.8438 13.5578 24.913 13.7246 25.0361 13.8477C25.1591 13.9707 25.326 14.0399 25.5 14.04H36.8321C37.0061 14.0399 37.173 13.9707 37.2961 13.8477C37.4191 13.7246 37.4883 13.5578 37.4884 13.3837V3.65512C37.4881 3.48127 37.4188 3.31464 37.2958 3.19181C37.1727 3.06899 37.006 3 36.8321 3H25.5ZM36.1759 12.7275H26.1563V4.3125H36.1759V12.7275Z"
                                        fill="#1D4C77" />
                                    <path
                                        d="M47.3452 20.952H40.4893V15.1395C40.4893 14.9655 40.4201 14.7985 40.297 14.6755C40.174 14.5524 40.007 14.4833 39.833 14.4833C39.6589 14.4833 39.492 14.5524 39.3689 14.6755C39.2459 14.7985 39.1767 14.9655 39.1767 15.1395V20.952H37.4892V16.3837C37.4892 16.2097 37.42 16.0428 37.297 15.9197C37.1739 15.7966 37.007 15.7275 36.8329 15.7275H25.5008C25.3267 15.7275 25.1598 15.7966 25.0367 15.9197C24.9137 16.0428 24.8445 16.2097 24.8445 16.3837V20.952H23.157V16.3837C23.157 16.2097 23.0878 16.0428 22.9648 15.9197C22.8417 15.7966 22.6748 15.7275 22.5007 15.7275H11.1686C10.9945 15.7275 10.8276 15.7966 10.7045 15.9197C10.5815 16.0428 10.5123 16.2097 10.5123 16.3837V20.952H8.82478V1.3125H39.1767V3.65625C39.1767 3.8303 39.2459 3.99722 39.3689 4.12029C39.492 4.24336 39.6589 4.3125 39.833 4.3125C40.007 4.3125 40.174 4.24336 40.297 4.12029C40.4201 3.99722 40.4893 3.8303 40.4893 3.65625V0.65625C40.4893 0.482202 40.4201 0.315282 40.297 0.192211C40.174 0.0691404 40.007 0 39.833 0H8.1685C7.99445 0 7.82753 0.0691404 7.70445 0.192211C7.58138 0.315282 7.51223 0.482202 7.51223 0.65625V20.952H0.656271C0.482217 20.952 0.315292 21.0211 0.192217 21.1442C0.0691426 21.2673 0 21.4342 0 21.6082L0 25.7332C0 25.9073 0.0691426 26.0742 0.192217 26.1973C0.315292 26.3204 0.482217 26.3895 0.656271 26.3895H3.56261C2.96485 29.0432 2.6661 31.7555 2.67196 34.4756C2.67196 34.6497 2.7411 34.8166 2.86418 34.9397C2.98725 35.0627 3.15418 35.1319 3.32823 35.1319C3.50228 35.1319 3.66921 35.0627 3.79228 34.9397C3.91536 34.8166 3.9845 34.6497 3.9845 34.4756C3.98014 31.7534 4.29161 29.0399 4.91265 26.3895H6.58521C7.20574 29.04 7.51696 31.7535 7.51261 34.4756C7.51693 37.198 7.20559 39.9118 6.58483 42.5625H4.91265C4.77877 42.0202 4.55939 41.0336 4.36851 39.7309C4.356 39.6456 4.32682 39.5636 4.28263 39.4896C4.23844 39.4157 4.18011 39.3511 4.11097 39.2996C3.97134 39.1957 3.79614 39.1516 3.62393 39.1768C3.45171 39.2021 3.29659 39.2947 3.19268 39.4343C3.08877 39.574 3.04458 39.7492 3.06985 39.9214C3.21942 40.9741 3.42333 42.0183 3.68074 43.05C3.66532 43.1046 3.65713 43.1609 3.65636 43.2176V45.4676C3.65686 46.1389 3.92368 46.7826 4.39825 47.2573C4.87283 47.7321 5.51639 47.9992 6.18769 48H41.8138C42.4849 47.9992 43.1283 47.7323 43.6028 47.2577C44.0774 46.7832 44.3443 46.1398 44.3451 45.4688V43.2188C44.3443 43.1621 44.3361 43.1057 44.3208 43.0511C45.0034 40.2445 45.3421 37.3652 45.3295 34.4768C45.3355 31.7562 45.0367 29.0436 44.4389 26.3895H47.3437C47.5178 26.3895 47.6847 26.3204 47.8078 26.1973C47.9309 26.0742 48 25.9073 48 25.7332V21.6082C48 21.4345 47.9311 21.2678 47.8083 21.1447C47.6856 21.0217 47.519 20.9524 47.3452 20.952ZM26.1571 17.04H36.1766V20.6966H26.1571V17.04ZM11.8249 17.04H21.8444V20.6966H11.8249V17.04ZM43.0326 45.4676C43.0322 45.7907 42.9037 46.1005 42.6752 46.329C42.4467 46.5574 42.1369 46.686 41.8138 46.6864H6.18769C5.86457 46.686 5.5548 46.5574 5.32632 46.329C5.09784 46.1005 4.9693 45.7907 4.9689 45.4676V43.875H43.0326V45.4676ZM7.93562 26.3895H12.6874C11.5019 31.7149 11.5019 37.2359 12.6874 42.5614H7.93562C8.53286 39.9078 8.8311 37.1956 8.82478 34.4756C8.83112 31.7555 8.53288 29.0432 7.93562 26.3895ZM13.1108 34.4756C13.1063 31.7534 13.4176 29.0399 14.0386 26.3895H15.7107C16.3315 29.04 16.6428 31.7535 16.6385 34.4756C16.6429 37.198 16.3316 39.9118 15.7107 42.5625H14.0386C13.4175 39.9118 13.1062 37.1981 13.1108 34.4756ZM17.063 26.3895H21.8144C20.6289 31.7149 20.6289 37.2359 21.8144 42.5614H17.063C17.6603 39.9078 17.9585 37.1956 17.9522 34.4756C17.9585 31.7555 17.6603 29.0432 17.063 26.3895ZM22.2382 34.4756C22.2334 31.7535 22.5443 29.04 23.1645 26.3895H24.837C25.4572 29.04 25.7681 31.7535 25.7633 34.4756C25.7682 37.198 25.4573 39.9117 24.837 42.5625H23.1645C22.5442 39.9117 22.2333 37.198 22.2382 34.4756ZM26.1882 26.3895H30.9385C29.7529 31.7149 29.7529 37.2359 30.9385 42.5614H26.1882C26.7849 39.9077 27.0827 37.1956 27.0758 34.4756C27.0827 31.7556 26.7849 29.0433 26.1882 26.3895ZM31.3634 34.4756C31.3591 31.7535 31.6704 29.04 32.2911 26.3895H33.9633C34.5842 29.0399 34.8956 31.7534 34.8911 34.4756C34.8955 37.1981 34.5841 39.9118 33.9629 42.5625H32.2908C31.6699 39.9118 31.359 37.198 31.3634 34.4756ZM35.3141 26.3895H40.0659C38.8803 31.7149 38.8803 37.2359 40.0659 42.5614H35.3141C35.9113 39.9078 36.2096 37.1956 36.2033 34.4756C36.2096 31.7555 35.9114 29.0432 35.3141 26.3895ZM43.0888 42.5625H41.4163C40.1798 37.2428 40.1798 31.7103 41.4163 26.3906H43.0888C44.3259 31.7103 44.3259 37.2428 43.0888 42.5625ZM46.689 25.0781H1.31254V22.2656H46.689V25.0781Z"
                                        fill="#1D4C77" />
                                    <path
                                        d="M4.3125 43.2178H43.6887V45.4678C43.6887 45.9651 43.4912 46.442 43.1395 46.7936C42.7879 47.1452 42.311 47.3428 41.8137 47.3428H6.18756C5.69026 47.3428 5.21333 47.1452 4.86169 46.7936C4.51005 46.442 4.3125 45.9651 4.3125 45.4678V43.2178Z"
                                        fill="#1D4C77" />
                                </svg>
