<svg xmlns="http://www.w3.org/2000/svg" width="55" height="51" viewBox="0 0 55 51" fill="none">
<path d="M53.7019 27.9124L45.2625 24.7425C44.9622 24.6298 44.3395 24.4819 43.6362 24.7425L35.1968 27.9124C34.413 28.2082 33.9002 28.8985 33.9002 29.6663C33.9002 37.5275 38.933 42.9655 43.6362 44.7336C44.3395 44.9942 44.9548 44.8463 45.2625 44.7336C49.0207 43.3248 54.9985 38.4362 54.9985 29.6663C54.9985 28.8985 54.4857 28.2082 53.7019 27.9124ZM44.4493 41.3876V28.0673L51.4455 30.6948C51.0353 36.8301 46.9841 40.2324 44.4493 41.3876ZM24.5231 26.8487C29.7025 26.8487 33.9002 22.8125 33.9002 17.8323C33.9002 12.8522 29.7025 8.81592 24.5231 8.81592C19.3438 8.81592 15.1461 12.8522 15.1461 17.8323C15.1461 22.8125 19.3438 26.8487 24.5231 26.8487ZM31.5559 29.6663C31.5559 29.4902 31.6145 29.3282 31.6365 29.1592C31.4533 29.1521 31.2775 29.1028 31.0871 29.1028H29.8636C28.2373 29.8213 26.4278 30.2299 24.5231 30.2299C22.6184 30.2299 20.8163 29.8213 19.1826 29.1028H17.9592C12.5234 29.1028 8.11328 33.3433 8.11328 38.57V41.5003C8.11328 43.367 9.68833 44.8815 11.6297 44.8815H37.4166C37.9147 44.8815 38.3909 44.7758 38.8231 44.5997C34.8672 41.5778 31.5559 36.3793 31.5559 29.6663Z" fill="#F5F5F5"/>
</svg>