<svg xmlns="http://www.w3.org/2000/svg" width="56" height="52" viewBox="0 0 56 52" fill="none">
  <path d="M17.7019 0.726562C15.9183 2.93089 15.0938 4.81551 15.0769 6.64964C15.0601 8.48378 15.8762 9.90565 16.4231 10.8227C16.97 11.7398 17.2139 12.2025 17.2308 12.7073C17.2476 13.2121 17.0793 14.0956 15.75 15.8035L19.1154 18.4958C20.7981 16.3251 21.5974 14.3732 21.5385 12.5727C21.4796 10.7722 20.6551 9.48498 20.125 8.60156C19.595 7.71815 19.3762 7.247 19.3846 6.71695C19.393 6.1869 19.6202 5.20252 21.0673 3.41887L17.7019 0.726562ZM28.4712 0.726562C26.6875 2.93089 25.863 4.81551 25.8462 6.64964C25.8293 8.48378 26.6454 9.90565 27.1923 10.8227C27.7392 11.7398 27.9832 12.2025 28 12.7073C28.0168 13.2121 27.8486 14.0956 26.5192 15.8035L29.8846 18.4958C31.5673 16.3251 32.3666 14.3732 32.3077 12.5727C32.2488 10.7722 31.4243 9.48498 30.8942 8.60156C30.3642 7.71815 30.1454 7.247 30.1538 6.71695C30.1623 6.1869 30.3894 5.20252 31.8365 3.41887L28.4712 0.726562ZM39.2404 0.726562C37.4567 2.93089 36.6322 4.81551 36.6154 6.64964C36.5986 8.48378 37.4147 9.90565 37.9615 10.8227C38.5084 11.7398 38.7524 12.2025 38.7692 12.7073C38.7861 13.2121 38.6178 14.0956 37.2885 15.8035L40.6538 18.4958C42.3365 16.3251 43.1358 14.3732 43.0769 12.5727C43.018 10.7722 42.1935 9.48498 41.6635 8.60156C41.1334 7.71815 40.9147 7.247 40.9231 6.71695C40.9315 6.1869 41.1587 5.20252 42.6058 3.41887L39.2404 0.726562ZM0 21.4573V25.765H2.55769L5.85577 42.1208V42.1881C6.35216 44.4093 8.0012 46.235 10.1635 46.9669L8.61539 51.6112H12.9231L14.3365 47.3035H41.6635L43.0769 51.6112H47.3846L45.8365 46.9669C48.0913 46.277 49.8414 44.4682 50.3462 42.1881V42.1208L53.4423 25.765H56V21.4573H0ZM6.93269 25.765H49.1346L46.1058 41.3131C45.8534 42.247 45.0625 42.9958 43.9519 42.9958H12.25C11.0974 42.9958 10.3149 42.2302 10.0962 41.2458L6.93269 25.765Z" fill="#1D4C77"/>
</svg>