<svg xmlns="http://www.w3.org/2000/svg" width="50" height="42" viewBox="0 0 50 42" fill="none">
<path d="M43.4537 5H7.7394C5.76767 5 4.16797 6.5997 4.16797 8.57143V34.7619C4.16797 36.7336 5.76767 38.3333 7.7394 38.3333H43.4537C45.4254 38.3333 47.0251 36.7336 47.0251 34.7619V8.57143C47.0251 6.5997 45.4254 5 43.4537 5ZM17.2632 12.1429C19.8897 12.1429 22.0251 14.2783 22.0251 16.9048C22.0251 19.5312 19.8897 21.6667 17.2632 21.6667C14.6367 21.6667 12.5013 19.5312 12.5013 16.9048C12.5013 14.2783 14.6367 12.1429 17.2632 12.1429ZM25.5965 29.7619C25.5965 30.5506 24.8525 31.1905 23.9299 31.1905H10.5965C9.67392 31.1905 8.92987 30.5506 8.92987 29.7619V28.3333C8.92987 25.9673 11.1695 24.0476 13.9299 24.0476H14.3019C15.2171 24.4271 16.2141 24.6429 17.2632 24.6429C18.3123 24.6429 19.3168 24.4271 20.2245 24.0476H20.5965C23.357 24.0476 25.5965 25.9673 25.5965 28.3333V29.7619ZM42.2632 25.8333C42.2632 26.1607 41.9954 26.4286 41.668 26.4286H30.9537C30.6263 26.4286 30.3584 26.1607 30.3584 25.8333V24.6429C30.3584 24.3155 30.6263 24.0476 30.9537 24.0476H41.668C41.9954 24.0476 42.2632 24.3155 42.2632 24.6429V25.8333ZM42.2632 21.0714C42.2632 21.3988 41.9954 21.6667 41.668 21.6667H30.9537C30.6263 21.6667 30.3584 21.3988 30.3584 21.0714V19.881C30.3584 19.5536 30.6263 19.2857 30.9537 19.2857H41.668C41.9954 19.2857 42.2632 19.5536 42.2632 19.881V21.0714ZM42.2632 16.3095C42.2632 16.6369 41.9954 16.9048 41.668 16.9048H30.9537C30.6263 16.9048 30.3584 16.6369 30.3584 16.3095V15.119C30.3584 14.7917 30.6263 14.5238 30.9537 14.5238H41.668C41.9954 14.5238 42.2632 14.7917 42.2632 15.119V16.3095Z" fill="#F5F5F5"/>
</svg>