 <svg xmlns="http://www.w3.org/2000/svg" width="47" height="45" viewBox="0 0 47 45"
                                    fill="none">
                                    <path
                                        d="M0 24.75H1.67857L5.03571 42.7499C5.03571 43.9942 5.78604 44.9999 6.71429 44.9999H40.2857C41.214 44.9999 41.9643 43.9942 41.9643 42.7499L45.3214 24.75H47V18H0V24.75ZM34.4107 24.75H37.7679C38.2311 24.75 38.6071 25.254 38.6071 25.875C38.6071 26.496 38.2311 27 37.7679 27H34.4107C33.9474 27 33.5714 26.496 33.5714 25.875C33.5714 25.254 33.9474 24.75 34.4107 24.75ZM34.4107 29.25H37.7679C38.2311 29.25 38.6071 29.754 38.6071 30.375C38.6071 30.996 38.2311 31.5 37.7679 31.5H34.4107C33.9474 31.5 33.5714 30.996 33.5714 30.375C33.5714 29.754 33.9474 29.25 34.4107 29.25ZM34.4107 33.75H37.7679C38.2311 33.75 38.6071 34.254 38.6071 34.875C38.6071 35.496 38.2311 36 37.7679 36H34.4107C33.9474 36 33.5714 35.496 33.5714 34.875C33.5714 34.254 33.9474 33.75 34.4107 33.75ZM34.4107 38.25H37.7679C38.2311 38.25 38.6071 38.754 38.6071 39.3749C38.6071 39.9959 38.2311 40.4999 37.7679 40.4999H34.4107C33.9474 40.4999 33.5714 39.9959 33.5714 39.3749C33.5714 38.754 33.9474 38.25 34.4107 38.25ZM26.0179 24.75H29.375C29.8383 24.75 30.2143 25.254 30.2143 25.875C30.2143 26.496 29.8383 27 29.375 27H26.0179C25.5546 27 25.1786 26.496 25.1786 25.875C25.1786 25.254 25.5546 24.75 26.0179 24.75ZM26.0179 29.25H29.375C29.8383 29.25 30.2143 29.754 30.2143 30.375C30.2143 30.996 29.8383 31.5 29.375 31.5H26.0179C25.5546 31.5 25.1786 30.996 25.1786 30.375C25.1786 29.754 25.5546 29.25 26.0179 29.25ZM26.0179 33.75H29.375C29.8383 33.75 30.2143 34.254 30.2143 34.875C30.2143 35.496 29.8383 36 29.375 36H26.0179C25.5546 36 25.1786 35.496 25.1786 34.875C25.1786 34.254 25.5546 33.75 26.0179 33.75ZM26.0179 38.25H29.375C29.8383 38.25 30.2143 38.754 30.2143 39.3749C30.2143 39.9959 29.8383 40.4999 29.375 40.4999H26.0179C25.5546 40.4999 25.1786 39.9959 25.1786 39.3749C25.1786 38.754 25.5546 38.25 26.0179 38.25ZM17.625 24.75H20.9821C21.4454 24.75 21.8214 25.254 21.8214 25.875C21.8214 26.496 21.4454 27 20.9821 27H17.625C17.1617 27 16.7857 26.496 16.7857 25.875C16.7857 25.254 17.1617 24.75 17.625 24.75ZM17.625 29.25H20.9821C21.4454 29.25 21.8214 29.754 21.8214 30.375C21.8214 30.996 21.4454 31.5 20.9821 31.5H17.625C17.1617 31.5 16.7857 30.996 16.7857 30.375C16.7857 29.754 17.1617 29.25 17.625 29.25ZM17.625 33.75H20.9821C21.4454 33.75 21.8214 34.254 21.8214 34.875C21.8214 35.496 21.4454 36 20.9821 36H17.625C17.1617 36 16.7857 35.496 16.7857 34.875C16.7857 34.254 17.1617 33.75 17.625 33.75ZM17.625 38.25H20.9821C21.4454 38.25 21.8214 38.754 21.8214 39.3749C21.8214 39.9959 21.4454 40.4999 20.9821 40.4999H17.625C17.1617 40.4999 16.7857 39.9959 16.7857 39.3749C16.7857 38.754 17.1617 38.25 17.625 38.25ZM9.23214 24.75H12.5893C13.0526 24.75 13.4286 25.254 13.4286 25.875C13.4286 26.496 13.0526 27 12.5893 27H9.23214C8.76886 27 8.39286 26.496 8.39286 25.875C8.39286 25.254 8.76886 24.75 9.23214 24.75ZM9.23214 29.25H12.5893C13.0526 29.25 13.4286 29.754 13.4286 30.375C13.4286 30.996 13.0526 31.5 12.5893 31.5H9.23214C8.76886 31.5 8.39286 30.996 8.39286 30.375C8.39286 29.754 8.76886 29.25 9.23214 29.25ZM9.23214 33.75H12.5893C13.0526 33.75 13.4286 34.254 13.4286 34.875C13.4286 35.496 13.0526 36 12.5893 36H9.23214C8.76886 36 8.39286 35.496 8.39286 34.875C8.39286 34.254 8.76886 33.75 9.23214 33.75ZM9.23214 38.25H12.5893C13.0526 38.25 13.4286 38.754 13.4286 39.3749C13.4286 39.9959 13.0526 40.4999 12.5893 40.4999H9.23214C8.76886 40.4999 8.39286 39.9959 8.39286 39.3749C8.39286 38.754 8.76886 38.25 9.23214 38.25Z"
                                        fill="#1D4C77" />
                                    <path
                                        d="M5.87444 15.7515H41.9637C42.427 15.7515 42.803 15.2475 42.803 14.6265C42.803 14.0055 42.427 13.5015 41.9637 13.5015H5.87444C5.41116 13.5015 5.03516 14.0055 5.03516 14.6265C5.03516 15.2475 5.41116 15.7515 5.87444 15.7515Z"
                                        fill="#1D4C77" />
                                    <path
                                        d="M5.03516 10.1235C5.03516 10.7445 5.41116 11.2485 5.87444 11.2485H36.928C37.3913 11.2485 37.7673 10.7445 37.7673 10.1235C37.7673 9.50253 37.3913 8.99854 36.928 8.99854H5.87444C5.41116 8.99854 5.03516 9.50253 5.03516 10.1235Z"
                                        fill="#1D4C77" />
                                    <path
                                        d="M8.39397 6.74999H36.9297C37.393 6.74999 37.769 6.246 37.769 5.625C37.769 5.004 37.393 4.5 36.9297 4.5H8.39397C7.93069 4.5 7.55469 5.004 7.55469 5.625C7.55469 6.246 7.93069 6.74999 8.39397 6.74999Z"
                                        fill="#1D4C77" />
                                    <path
                                        d="M8.39397 2.24999H31.894C32.3573 2.24999 32.7333 1.746 32.7333 1.125C32.7333 0.503999 32.3573 0 31.894 0H8.39397C7.93069 0 7.55469 0.503999 7.55469 1.125C7.55469 1.746 7.93069 2.24999 8.39397 2.24999Z"
                                        fill="#1D4C77" />
                                </svg>  