<svg xmlns="http://www.w3.org/2000/svg" width="60" height="40" viewBox="0 0 60 40" fill="none">
<path d="M37.9643 16.6577C37.9643 9.95622 30.9602 4.52832 22.3161 4.52832C13.672 4.52832 6.66797 9.95622 6.66797 16.6577C6.66797 19.2579 7.72873 21.6535 9.52676 23.6321C8.51866 25.9215 6.85605 27.7409 6.83348 27.7637C6.66797 27.938 6.62283 28.1958 6.72063 28.4232C6.81843 28.6506 7.02908 28.7871 7.26982 28.7871C10.0233 28.7871 12.3028 27.8546 13.9429 26.8919C16.3653 28.0821 19.2316 28.7871 22.3161 28.7871C30.9602 28.7871 37.9643 23.3592 37.9643 16.6577ZM47.1425 33.3356C48.9405 31.3646 50.0013 28.9614 50.0013 26.3612C50.0013 21.2896 45.9764 16.9458 40.2739 15.1339C40.3416 15.6343 40.3717 16.1422 40.3717 16.6577C40.3717 24.6858 32.2692 31.213 22.3161 31.213C21.5036 31.213 20.7137 31.1523 19.9313 31.0689C22.3011 35.4279 27.8682 38.4906 34.3532 38.4906C37.4376 38.4906 40.304 37.7931 42.7264 36.5954C44.3665 37.5581 46.646 38.4906 49.3994 38.4906C49.6402 38.4906 49.8584 38.3465 49.9486 38.1267C50.0464 37.9069 50.0013 37.6491 49.8358 37.4672C49.8132 37.4444 48.1506 35.6326 47.1425 33.3356Z" fill="#F5F5F5"/>
</svg>