<svg xmlns="http://www.w3.org/2000/svg" width="45" height="45" viewBox="0 0 45 45" fill="none">
  <path d="M42.714 0C41.7235 0 40.905 0.61875 40.6345 1.51875L31.1925 26.2687L36.5037 28.1812L44.9621 2.53125C45.0535 2.08125 44.9727 1.62422 44.7935 1.26562C44.5231 0.724219 44.0699 0.348047 43.529 0.16875C43.2585 0.0773437 42.9845 0 42.714 0ZM14.4723 3.68437C11.6832 3.68437 9.17167 5.13984 7.64366 7.48125C7.10271 7.48125 6.74442 7.55508 6.2948 7.73438L7.55936 9.16875C7.82983 9.07734 7.99141 9.09141 8.26189 9H8.71151L8.90822 8.63437C9.9866 6.65508 12.1399 5.4 14.388 5.4C17.2648 5.4 19.7939 7.38984 20.514 10.1812L20.6826 10.8844H21.5819C23.289 10.8844 24.6449 12.0551 25.0945 13.5844H26.9773C26.5277 11.1551 24.5431 9.26367 22.1158 9.08437C20.9461 5.84297 17.9779 3.68437 14.4723 3.68437ZM1.96721 5.34375C1.7424 5.32266 1.48948 5.38945 1.26467 5.56875C0.815053 5.92734 0.79749 6.47578 1.06796 6.83437L3.54088 9.84375C2.68028 10.8738 2.07259 12.1113 1.8829 13.5H3.68138C3.83945 12.6598 4.19072 11.8863 4.66493 11.2219L12.7019 20.9812C12.6246 21.1711 12.5895 21.375 12.5895 21.6C12.5895 22.5914 13.3974 23.4 14.388 23.4C15.3785 23.4 16.1864 22.5914 16.1864 21.6C16.1864 20.6086 15.3785 19.8 14.388 19.8C14.3107 19.8 14.2369 19.8176 14.1632 19.8281L2.52923 5.68125C2.39575 5.50195 2.19202 5.36484 1.96721 5.34375ZM0.899357 14.4C0.628883 14.4 0.34787 14.502 0.168724 14.6812C-0.0104213 14.952 0.000116765 15.198 0.000116765 15.4688L4.49632 44.2687C4.58765 44.6273 4.94594 45 5.39556 45H20.6826C18.705 43.4707 17.9849 41.298 17.9849 39.3187C17.9849 33.5602 23.1169 29.6086 26.893 27.45L28.7758 15.4688C28.7758 15.198 28.7864 14.9449 28.6072 14.7656C28.4281 14.4949 28.147 14.4 27.8766 14.4H11.9713L14.9219 18.0844C16.629 18.3551 17.9849 19.8914 17.9849 21.6C17.9849 23.5793 16.3656 25.2 14.388 25.2C12.4103 25.2 10.791 23.5793 10.791 21.6V21.5156L4.94594 14.4H0.899357ZM30.1247 27.8156C27.1565 29.1656 19.7834 33.198 19.7834 39.3187C19.7834 39.4875 19.7975 39.6562 19.8115 39.825C19.822 39.9445 19.822 40.0711 19.8396 40.1906C19.8466 40.2434 19.8572 40.3066 19.8677 40.3594C19.8888 40.4684 19.9239 40.5879 19.952 40.6969C20.0609 41.1328 20.2295 41.5512 20.4578 41.9625C20.4789 42.0012 20.493 42.0398 20.514 42.075C20.5843 42.191 20.6581 42.3 20.7389 42.4125C20.7951 42.4898 20.8477 42.5637 20.9075 42.6375C20.9356 42.6727 20.9601 42.7148 20.9918 42.75C21.1077 42.8871 21.2482 43.0172 21.3852 43.1437C22.5092 44.2301 24.2726 45 26.893 45C25.9025 44.2793 25.0875 43.3793 24.7292 42.3C23.3804 38.9707 25.7128 35.2758 27.0616 33.8344C27.4199 33.4758 27.9679 33.4758 28.3262 33.8344C28.6845 34.193 28.6845 34.7414 28.3262 35.1C26.9773 36.45 25.3685 39.3398 26.3591 41.6812C26.9879 43.2105 28.5896 44.2793 31.1082 45H33.272C31.8318 44.1914 30.9466 43.2773 30.4057 42.4688C29.5064 41.0273 29.2254 39.4207 29.6751 37.8C29.8542 37.35 30.2933 37.0898 30.7429 37.1812C31.1925 37.2727 31.4806 37.8 31.3892 38.25C31.2101 38.8793 31.0239 40.05 31.9232 41.4C32.8224 42.6586 34.9019 44.3742 39.8477 44.9156H44.0629C44.5125 44.9156 44.8708 44.55 44.9621 44.1C44.9621 43.7414 44.6811 43.2914 44.2315 43.2C44.1402 43.2 38.1335 41.7551 35.8854 37.4344C34.7157 35.2758 35.8854 29.8687 35.8854 29.8687H35.8011L30.4057 27.9L30.1247 27.8156Z" fill="#1D4C77"/>
</svg>