<svg width="33" height="36" viewBox="0 0 33 36" fill="none" xmlns="http://www.w3.org/2000/svg">
    <path
        d="M29.4643 0.343262H3.53571C1.58371 0.343262 0 2.02716 0 4.10265V31.6715C0 33.747 1.58371 35.4309 3.53571 35.4309H29.4643C31.4163 35.4309 33 33.747 33 31.6715V4.10265C33 2.02716 31.4163 0.343262 29.4643 0.343262ZM17.6786 22.8996H14.1429V26.659C14.1429 27.3482 13.6125 27.9121 12.9643 27.9121H10.6071C9.95893 27.9121 9.42857 27.3482 9.42857 26.659V9.11518C9.42857 8.42596 9.95893 7.86205 10.6071 7.86205H17.6786C21.5752 7.86205 24.75 11.2377 24.75 15.3808C24.75 19.524 21.5752 22.8996 17.6786 22.8996ZM17.6786 12.8746H14.1429V17.8871H17.6786C18.975 17.8871 20.0357 16.7593 20.0357 15.3808C20.0357 14.0024 18.975 12.8746 17.6786 12.8746Z"
        fill="#1D4C77" />
</svg>