<svg width="54" height="50" viewBox="0 0 54 50" fill="none" xmlns="http://www.w3.org/2000/svg">
<path d="M54 12.75V44.25C54 47.1484 51.7324 49.5 48.9375 49.5H5.0625C2.26758 49.5 0 47.1484 0 44.25V12.75C0 9.85156 2.26758 7.5 5.0625 7.5H14.3438L15.641 3.90156C16.3793 1.85625 18.2672 0.5 20.3766 0.5H33.6129C35.7223 0.5 37.6102 1.85625 38.3484 3.90156L39.6562 7.5H48.9375C51.7324 7.5 54 9.85156 54 12.75ZM39.6562 28.5C39.6562 21.2594 33.982 15.375 27 15.375C20.018 15.375 14.3438 21.2594 14.3438 28.5C14.3438 35.7406 20.018 41.625 27 41.625C33.982 41.625 39.6562 35.7406 39.6562 28.5ZM36.2812 28.5C36.2812 33.8047 32.1152 38.125 27 38.125C21.8848 38.125 17.7188 33.8047 17.7188 28.5C17.7188 23.1953 21.8848 18.875 27 18.875C32.1152 18.875 36.2812 23.1953 36.2812 28.5Z" fill="white"/>
</svg>
