<svg xmlns="http://www.w3.org/2000/svg" width="44" height="51" viewBox="0 0 44 51" fill="none">
<path d="M40.4857 16.6175H3.24918C2.66718 16.6175 2.19531 16.2079 2.19531 15.7026V12.9579C2.19531 10.9368 4.08261 9.29837 6.41077 9.29837H10.6262V5.33384C10.6262 4.82859 11.0981 4.41895 11.6801 4.41895H15.193C15.775 4.41895 16.2468 4.82859 16.2468 5.33384V9.29837H27.4881V5.33384C27.4881 4.82859 27.9599 4.41895 28.5419 4.41895H32.0548C32.6368 4.41895 33.1087 4.82859 33.1087 5.33384V9.29837H37.3241C39.6523 9.29837 41.5396 10.9368 41.5396 12.9579V15.7026C41.5396 16.2079 41.0677 16.6175 40.4857 16.6175ZM3.24918 19.0572H40.4857C41.0677 19.0572 41.5396 19.4669 41.5396 19.9721V39.7948C41.5396 41.8159 39.6523 43.4543 37.3241 43.4543H6.41077C4.08261 43.4543 2.19531 41.8159 2.19531 39.7948V19.9721C2.19531 19.4669 2.66718 19.0572 3.24918 19.0572ZM32.5199 26.3723L30.046 24.2072C29.6362 23.8485 28.9689 23.8461 28.5557 24.202L19.2433 32.2214L15.2053 28.6875C14.7954 28.3287 14.128 28.3264 13.7148 28.6823L11.221 30.83C10.8078 31.1858 10.805 31.7651 11.215 32.1238L18.4692 38.4723C18.879 38.831 19.5463 38.8334 19.9595 38.4775L32.5139 27.6661C32.9271 27.3103 32.9299 26.731 32.5199 26.3723Z" fill="#F5F5F5"/>
</svg>