<svg xmlns="http://www.w3.org/2000/svg" width="45" height="38" viewBox="0 0 45 38"
                                    fill="none">
                                    <path
                                        d="M21.9034 9.8582L7.50059 22.7398V36.6427C7.50059 37.0027 7.63228 37.3479 7.86668 37.6025C8.10108 37.857 8.419 38 8.7505 38L17.5045 37.9754C17.8349 37.9736 18.1512 37.8298 18.3843 37.5755C18.6173 37.3211 18.7482 36.9769 18.7482 36.6181V28.4989C18.7482 28.139 18.8798 27.7937 19.1143 27.5392C19.3487 27.2846 19.6666 27.1416 19.9981 27.1416H24.9977C25.3292 27.1416 25.6471 27.2846 25.8815 27.5392C26.1159 27.7937 26.2476 28.139 26.2476 28.4989V36.6122C26.2471 36.7908 26.279 36.9677 26.3416 37.1329C26.4042 37.298 26.4962 37.4482 26.6123 37.5747C26.7284 37.7011 26.8664 37.8015 27.0183 37.87C27.1702 37.9385 27.333 37.9737 27.4975 37.9737L36.2484 38C36.5799 38 36.8978 37.857 37.1322 37.6025C37.3666 37.3479 37.4983 37.0027 37.4983 36.6427V22.7304L23.0986 9.8582C22.9293 9.71002 22.7184 9.62922 22.501 9.62922C22.2836 9.62922 22.0727 9.71002 21.9034 9.8582ZM44.654 18.6136L38.1232 12.7679V1.01797C38.1232 0.747988 38.0245 0.489063 37.8487 0.298157C37.6729 0.10725 37.4344 0 37.1858 0H32.8111C32.5625 0 32.3241 0.10725 32.1483 0.298157C31.9725 0.489063 31.8737 0.747988 31.8737 1.01797V7.17754L24.8797 0.928898C24.2085 0.329126 23.3663 0.00119895 22.4971 0.00119895C21.6279 0.00119895 20.7857 0.329126 20.1145 0.928898L0.340207 18.6136C0.245283 18.6988 0.166748 18.8035 0.10909 18.9216C0.0514319 19.0398 0.0157806 19.1692 0.00417324 19.3023C-0.00743416 19.4354 0.0052298 19.5697 0.0414415 19.6976C0.0776532 19.8254 0.136703 19.9442 0.215217 20.0472L2.20725 22.677C2.28555 22.7804 2.38186 22.866 2.49066 22.9289C2.59947 22.9918 2.71863 23.0308 2.84134 23.0437C2.96404 23.0565 3.08787 23.0429 3.20574 23.0038C3.32361 22.9646 3.4332 22.9005 3.52824 22.8153L21.9034 6.38013C22.0727 6.23195 22.2836 6.15115 22.501 6.15115C22.7184 6.15115 22.9293 6.23195 23.0986 6.38013L41.4745 22.8153C41.5694 22.9005 41.6788 22.9647 41.7965 23.004C41.9142 23.0433 42.0379 23.0571 42.1605 23.0444C42.2831 23.0318 42.4023 22.9931 42.5111 22.9305C42.6199 22.8679 42.7163 22.7826 42.7948 22.6795L44.7868 20.0498C44.8652 19.9462 44.924 19.8267 44.9598 19.6983C44.9956 19.57 45.0077 19.4352 44.9953 19.3017C44.983 19.1682 44.9465 19.0388 44.8879 18.9207C44.8293 18.8026 44.7498 18.6982 44.654 18.6136Z"
                                        fill="#1D4C77" />
 </svg>