<svg width="38" height="37" viewBox="0 0 38 37" fill="none" xmlns="http://www.w3.org/2000/svg">
    <path
        d="M36.1 0H1.9C1.39609 0 0.912816 0.200178 0.556497 0.556497C0.200178 0.912816 0 1.39609 0 1.9V17.1C0 17.6039 0.200178 18.0872 0.556497 18.4435C0.912816 18.7998 1.39609 19 1.9 19H36.1C36.6039 19 37.0872 18.7998 37.4435 18.4435C37.7998 18.0872 38 17.6039 38 17.1V1.9C38 1.39609 37.7998 0.912816 37.4435 0.556497C37.0872 0.200178 36.6039 0 36.1 0ZM30.4 15.2H7.6C7.09609 15.2 6.61282 14.9998 6.2565 14.6435C5.90018 14.2872 5.7 13.8039 5.7 13.3C5.7 12.7961 5.90018 12.3128 6.2565 11.9565C6.61282 11.6002 7.09609 11.4 7.6 11.4H30.4C30.9039 11.4 31.3872 11.6002 31.7435 11.9565C32.0998 12.3128 32.3 12.7961 32.3 13.3C32.3 13.8039 32.0998 14.2872 31.7435 14.6435C31.3872 14.9998 30.9039 15.2 30.4 15.2ZM30.4 7.6H28.5C27.9961 7.6 27.5128 7.39982 27.1565 7.0435C26.8002 6.68718 26.6 6.20391 26.6 5.7C26.6 5.19609 26.8002 4.71282 27.1565 4.3565C27.5128 4.00018 27.9961 3.8 28.5 3.8H30.4C30.9039 3.8 31.3872 4.00018 31.7435 4.3565C32.0998 4.71282 32.3 5.19609 32.3 5.7C32.3 6.20391 32.0998 6.68718 31.7435 7.0435C31.3872 7.39982 30.9039 7.6 30.4 7.6Z"
        fill="#1D4C77" />
    <path
        d="M20.5056 23.3576L16.7056 27.1576C16.3494 27.5139 16.1493 27.9971 16.1493 28.5009C16.1493 29.0047 16.3494 29.4879 16.7056 29.8442L17.2623 30.4009L14.8056 32.8576C14.6242 33.0328 14.4794 33.2425 14.3798 33.4743C14.2803 33.7061 14.2278 33.9554 14.2257 34.2077C14.2235 34.46 14.2715 34.7102 14.3671 34.9437C14.4626 35.1772 14.6037 35.3893 14.7821 35.5677C14.9605 35.7461 15.1726 35.8872 15.4061 35.9827C15.6396 36.0783 15.8898 36.1263 16.1421 36.1241C16.3944 36.122 16.6437 36.0695 16.8755 35.97C17.1073 35.8704 17.317 35.7256 17.4922 35.5442L21.2922 31.7442C21.6484 31.3879 21.8485 30.9047 21.8485 30.4009C21.8485 29.8971 21.6484 29.4139 21.2922 29.0576L20.7355 28.5009L23.1922 26.0442C23.5383 25.6858 23.7298 25.2059 23.7255 24.7077C23.7212 24.2095 23.5214 23.733 23.1691 23.3807C22.8168 23.0284 22.3403 22.8286 21.8421 22.8243C21.3439 22.82 20.864 23.0115 20.5056 23.3576Z"
        fill="#1D4C77" />
    <path
        d="M30.9558 23.3576L27.1558 27.1576C26.7996 27.5139 26.5995 27.9971 26.5995 28.5009C26.5995 29.0047 26.7996 29.4879 27.1558 29.8442L27.7125 30.4009L25.2558 32.8576C25.0744 33.0328 24.9296 33.2425 24.83 33.4743C24.7305 33.7061 24.678 33.9554 24.6759 34.2077C24.6737 34.46 24.7217 34.7102 24.8173 34.9437C24.9128 35.1772 25.0539 35.3893 25.2323 35.5677C25.4107 35.7461 25.6228 35.8872 25.8563 35.9827C26.0898 36.0783 26.34 36.1263 26.5923 36.1241C26.8446 36.122 27.0939 36.0695 27.3257 35.97C27.5575 35.8704 27.7672 35.7256 27.9424 35.5442L31.7424 31.7442C32.0986 31.3879 32.2987 30.9047 32.2987 30.4009C32.2987 29.8971 32.0986 29.4139 31.7424 29.0576L31.1857 28.5009L33.6424 26.0442C33.9885 25.6858 34.18 25.2059 34.1757 24.7077C34.1714 24.2095 33.9716 23.733 33.6193 23.3807C33.267 23.0284 32.7905 22.8286 32.2923 22.8243C31.7941 22.82 31.3142 23.0115 30.9558 23.3576Z"
        fill="#1D4C77" />
    <path
        d="M10.0554 23.3576L6.25544 27.1576C5.89924 27.5139 5.69914 27.9971 5.69914 28.5009C5.69914 29.0047 5.89924 29.4879 6.25544 29.8442L6.81214 30.4009L4.35544 32.8576C4.17397 33.0328 4.02922 33.2425 3.92965 33.4743C3.83007 33.7061 3.77765 33.9554 3.77546 34.2077C3.77327 34.46 3.82134 34.7102 3.91688 34.9437C4.01241 35.1772 4.15349 35.3893 4.33189 35.5677C4.51028 35.7461 4.72242 35.8872 4.95593 35.9827C5.18943 36.0783 5.43962 36.1263 5.6919 36.1241C5.94418 36.122 6.1935 36.0695 6.42531 35.97C6.65711 35.8704 6.86677 35.7256 7.04204 35.5442L10.842 31.7442C11.1982 31.3879 11.3983 30.9047 11.3983 30.4009C11.3983 29.8971 11.1982 29.4139 10.842 29.0576L10.2853 28.5009L12.742 26.0442C13.0881 25.6858 13.2796 25.2059 13.2753 24.7077C13.271 24.2095 13.0712 23.733 12.7189 23.3807C12.3666 23.0284 11.8901 22.8286 11.3919 22.8243C10.8937 22.82 10.4138 23.0115 10.0554 23.3576Z"
        fill="#1D4C77" />
</svg>