<svg width="50" height="45" viewBox="0 0 50 45" fill="none" xmlns="http://www.w3.org/2000/svg">
<path d="M44.6812 22.2791L36.5812 18.7399C36.293 18.6141 35.6953 18.4489 35.0203 18.7399L26.9203 22.2791C26.168 22.6094 25.6758 23.3802 25.6758 24.2375C25.6758 33.0146 30.5063 39.0863 35.0203 41.0604C35.6953 41.3514 36.2859 41.1862 36.5812 41.0604C40.1883 39.4874 45.9258 34.0292 45.9258 24.2375C45.9258 23.3802 45.4336 22.6094 44.6812 22.2791ZM35.8008 37.3246V22.4521L42.5156 25.3857C42.1219 32.236 38.2336 36.0347 35.8008 37.3246ZM16.6758 21.0915C21.6469 21.0915 25.6758 16.585 25.6758 11.0245C25.6758 5.46408 21.6469 0.95752 16.6758 0.95752C11.7047 0.95752 7.67578 5.46408 7.67578 11.0245C7.67578 16.585 11.7047 21.0915 16.6758 21.0915ZM23.4258 24.2375C23.4258 24.0408 23.482 23.8599 23.5031 23.6712C23.3273 23.6633 23.1586 23.6083 22.9758 23.6083H21.8016C20.2406 24.4105 18.5039 24.8666 16.6758 24.8666C14.8477 24.8666 13.118 24.4105 11.55 23.6083H10.3758C5.15859 23.6083 0.925781 28.3429 0.925781 34.1786V37.4504C0.925781 39.5346 2.4375 41.2255 4.30078 41.2255H29.0508C29.5289 41.2255 29.9859 41.1075 30.4008 40.9109C26.6039 37.5369 23.4258 31.7327 23.4258 24.2375Z" fill="#1D4C77"/>
</svg>
