<svg width="48" height="41" viewBox="0 0 48 41" fill="none" xmlns="http://www.w3.org/2000/svg">
<path d="M29.976 19.0562C29.9385 17.4941 29.2931 16.0083 28.1771 14.9147C27.0611 13.8211 25.5625 13.206 24 13.2002L29.976 19.0562Z" fill="#1D4C77"/>
<path d="M19.68 9.36C21.0356 8.73708 22.5082 8.40983 24 8.4C26.8643 8.4 29.6114 9.53785 31.6368 11.5632C33.6621 13.5886 34.8 16.3357 34.8 19.2C34.7971 20.4721 34.5612 21.7329 34.104 22.92L40.8 29.136C43.7895 26.294 46.2302 22.9259 48 19.2C48 19.2 40.8 2.4 24 2.4C20.6909 2.38489 17.4171 3.08058 14.4 4.44L19.68 9.36ZM4.8 0L2.4 2.4L8.52 8.16C4.93343 11.1982 2.02991 14.9605 0 19.2C0 19.2 7.2 36 24 36C27.8866 36.0191 31.7157 35.0618 35.136 33.216L43.2 40.8L45.6 38.4L4.8 0ZM24 30C21.1357 30 18.3886 28.8621 16.3632 26.8368C14.3379 24.8114 13.2 22.0643 13.2 19.2C13.2133 17.3448 13.7095 15.5251 14.64 13.92L18.312 17.376C18.1132 17.9639 18.0079 18.5794 18 19.2C17.9976 20.1768 18.2346 21.1393 18.6904 22.0033C19.1462 22.8672 19.8068 23.6063 20.6144 24.1558C21.4221 24.7052 22.3521 25.0484 23.323 25.1551C24.294 25.2618 25.2763 25.1289 26.184 24.768L29.88 28.248C28.1324 29.392 26.0888 30.0009 24 30Z" fill="#1D4C77"/>
</svg>
