<svg width="57" height="43" viewBox="0 0 57 43" fill="none" xmlns="http://www.w3.org/2000/svg">
<path d="M28.6838 0.962891C13.1875 0.962891 4 17.9629 4 17.9629C4 17.9629 13.1875 34.9629 28.6838 34.9629C43.8125 34.9629 53 17.9629 53 17.9629C53 17.9629 43.8125 0.962891 28.6838 0.962891ZM28.5 6.62956C35.2987 6.62956 40.75 11.7296 40.75 17.9629C40.75 24.2529 35.2987 29.2962 28.5 29.2962C21.7625 29.2962 16.25 24.2529 16.25 17.9629C16.25 11.7296 21.7625 6.62956 28.5 6.62956ZM28.5 12.2962C25.1313 12.2962 22.375 14.8462 22.375 17.9629C22.375 21.0796 25.1313 23.6296 28.5 23.6296C31.8687 23.6296 34.625 21.0796 34.625 17.9629C34.625 17.3962 34.38 16.8862 34.2575 16.3762C33.7675 17.2829 32.7875 17.9629 31.5625 17.9629C29.8475 17.9629 28.5 16.7162 28.5 15.1296C28.5 13.9962 29.235 13.0896 30.215 12.6362C29.6638 12.4662 29.1125 12.2962 28.5 12.2962Z" fill="#1D4C77"/>
</svg>
