<svg width="18" height="33" viewBox="0 0 28 51" fill="none" xmlns="http://www.w3.org/2000/svg">
<path d="M26.1876 48.6719C26.1876 49.1317 26.0051 49.5727 25.6803 49.8981C25.3555 50.2235 24.9148 50.4067 24.455 50.4076H3.54502C3.08468 50.4076 2.6432 50.2247 2.31769 49.8992C1.99218 49.5737 1.80931 49.1322 1.80931 48.6719C1.80931 48.2115 1.99218 47.77 2.31769 47.4445C2.6432 47.119 3.08468 46.9362 3.54502 46.9362H12.2643V42.3212C8.88033 42.6573 5.49912 41.6565 2.84322 39.5328C0.665946 36.7174 -0.321567 33.161 0.0924024 29.6261C3.62793 29.2104 7.18557 30.1968 10.0022 32.3738C11.0974 33.5277 11.8765 34.9445 12.2643 36.4874V26.3113C11.4501 26.9123 10.5242 27.3447 9.54066 27.5831C8.55718 27.8215 7.53598 27.8611 6.53699 27.6996C5.53799 27.5381 4.5813 27.1787 3.72304 26.6426C2.86478 26.1064 2.12222 25.4043 1.53893 24.5773C0.955639 23.7503 0.543355 22.8152 0.326263 21.8268C0.109171 20.8384 0.0916411 19.8166 0.274702 18.8213C0.457763 17.8261 0.837728 16.8774 1.39231 16.0309C1.94689 15.1844 2.66493 14.4572 3.50429 13.8919C2.57872 13.2631 1.80339 12.4377 1.23367 11.4747C0.663946 10.5116 0.313888 9.43465 0.208489 8.32067C0.103089 7.20669 0.244947 6.08318 0.623934 5.03036C1.00292 3.97754 1.60969 3.02138 2.40091 2.23016C3.19213 1.43894 4.14829 0.832171 5.20111 0.453184C6.25393 0.074197 7.37744 -0.0676611 8.49142 0.0377387C9.6054 0.143138 10.6824 0.493196 11.6454 1.06292C12.6085 1.63264 13.4339 2.40797 14.0627 3.33354C14.6911 2.40716 15.5165 1.63104 16.4797 1.06065C17.443 0.49026 18.5203 0.139681 19.6348 0.0339672C20.7492 -0.0717461 21.8733 0.0700167 22.9266 0.449124C23.9799 0.828232 24.9364 1.43532 25.7279 2.22701C26.5193 3.0187 27.1261 3.97544 27.5049 5.02886C27.8837 6.08228 28.0252 7.20637 27.9191 8.32078C27.8131 9.4352 27.4622 10.5124 26.8915 11.4755C26.3208 12.4386 25.5445 13.2637 24.6179 13.8919C25.0143 14.1616 25.3846 14.4679 25.7239 14.8068C27.0798 16.1719 27.8675 18.0006 27.9281 19.9237C27.9887 21.8469 27.3176 23.7215 26.0503 25.1693C24.783 26.6171 23.0137 27.5304 21.0994 27.7249C19.1851 27.9194 17.2683 27.3806 15.7357 26.2173V38.9218C16.1239 37.38 16.903 35.9642 17.9978 34.8113C20.814 32.6332 24.3717 31.6456 27.9076 32.0605C28.3216 35.5954 27.3341 39.1518 25.1568 41.9671C22.501 44.0912 19.1197 45.092 15.7357 44.7556V46.9362H24.455C24.6829 46.9362 24.9086 46.9811 25.1192 47.0683C25.3298 47.1555 25.5211 47.2834 25.6823 47.4445C25.8435 47.6057 25.9713 47.7971 26.0586 48.0076C26.1458 48.2182 26.1876 48.4439 26.1876 48.6719ZM14.0595 18.3565C14.9425 18.3565 15.8057 18.0947 16.5399 17.6041C17.2741 17.1135 17.8464 16.4162 18.1843 15.6004C18.5222 14.7846 18.6106 13.887 18.4383 13.0209C18.2661 12.1549 17.8409 11.3594 17.2165 10.735C16.5921 10.1106 15.7966 9.68537 14.9305 9.5131C14.0645 9.34084 13.1668 9.42925 12.351 9.76716C11.5352 10.1051 10.8379 10.6773 10.3474 11.4115C9.85678 12.1457 9.59494 13.0089 9.59494 13.8919C9.59576 15.0749 10.0661 16.2092 10.9026 17.0457C11.7391 17.8822 12.8734 18.3525 14.0564 18.3534L14.0595 18.3565Z" fill="#1D4C77"/>
</svg>
