<svg width="50" height="50" viewBox="0 0 50 50" fill="none" xmlns="http://www.w3.org/2000/svg">
<path d="M44.7946 15.0249H2.20536C1.5397 15.0249 1 14.5509 1 13.9663V10.7902C1 8.45141 3.15859 6.55549 5.82143 6.55549H10.6429V1.96786C10.6429 1.3832 11.1826 0.90918 11.8482 0.90918H15.8661C16.5317 0.90918 17.0714 1.3832 17.0714 1.96786V6.55549H29.9286V1.96786C29.9286 1.3832 30.4683 0.90918 31.1339 0.90918H35.1518C35.8174 0.90918 36.3571 1.3832 36.3571 1.96786V6.55549H41.1786C43.8414 6.55549 46 8.45141 46 10.7902V13.9663C46 14.5509 45.4603 15.0249 44.7946 15.0249ZM2.20536 17.8481H44.7946C45.4603 17.8481 46 18.3221 46 18.9068V41.8449C46 44.1837 43.8414 46.0796 41.1786 46.0796H5.82143C3.15859 46.0796 1 44.1837 1 41.8449V18.9068C1 18.3221 1.5397 17.8481 2.20536 17.8481ZM35.6837 26.3129L32.8543 23.8075C32.3855 23.3924 31.6223 23.3897 31.1497 23.8015L20.4987 33.0812L15.8801 28.9919C15.4114 28.5768 14.6481 28.5741 14.1755 28.9859L11.3231 31.4711C10.8505 31.8829 10.8474 32.5532 11.3162 32.9683L19.6132 40.3146C20.082 40.7297 20.8452 40.7324 21.3178 40.3206L35.6769 27.81C36.1495 27.3983 36.1526 26.728 35.6837 26.3129Z" fill="#1D4C77"/>
</svg>
