<svg xmlns="http://www.w3.org/2000/svg" width="48" height="42" viewBox="0 0 48 42" fill="none">
  <path d="M21.8182 0C19.4333 0 17.4545 1.97877 17.4545 4.36364V15.2727H0V17.4545V19.6364C1.41086 19.6364 2.56484 20.6545 2.74006 22.0526L3.42614 27.5327C3.82517 30.7281 5.61806 33.4358 8.12216 35.152L6.54545 41.4545H11.0412L12.1832 36.8864C12.8549 37.0167 13.5444 37.0909 14.25 37.0909H33.75C34.4556 37.0909 35.1451 37.0166 35.8168 36.8864L36.9588 41.4545H41.4545L39.8778 35.152C42.3816 33.4367 44.1748 30.7311 44.5739 27.5369L45.2599 22.0568C45.4354 20.6558 46.5891 19.6364 48 19.6364V17.4545V15.2727H21.8182V4.36364H28.3636V6.54545H26.1818V10.9091H34.9091V6.54545H32.7273V4.36364C32.7273 1.97877 30.7485 0 28.3636 0H21.8182Z" fill="#1D4C77"/>
</svg>