<svg width="28" height="34" viewBox="0 0 28 34" fill="none" xmlns="http://www.w3.org/2000/svg">
<path d="M25.4011 21.0445L20.8073 19.0242C20.611 18.9384 20.3929 18.9203 20.1858 18.9727C19.9787 19.0251 19.7937 19.1451 19.6588 19.3146L17.6244 21.8653C14.4316 20.3205 11.8621 17.6838 10.3567 14.4074L12.8423 12.3198C13.0079 12.1816 13.1251 11.9918 13.1762 11.7792C13.2272 11.5665 13.2094 11.3426 13.1253 11.1413L11.1566 6.42723C11.0643 6.21022 10.9012 6.03304 10.6953 5.92624C10.4894 5.81944 10.2536 5.78971 10.0286 5.84219L5.7629 6.85234C5.546 6.90374 5.35247 7.02906 5.21391 7.20786C5.07536 7.38666 4.99995 7.60837 5 7.83681C5 18.6328 13.5273 27.3664 24.0316 27.3664C24.2543 27.3665 24.4704 27.2892 24.6447 27.147C24.8191 27.0048 24.9413 26.8062 24.9914 26.5835L25.9758 22.2062C26.0266 21.9742 25.997 21.7313 25.8921 21.5193C25.7872 21.3073 25.6136 21.1394 25.4011 21.0445Z" fill="#1D4C77"/>
</svg>
