<svg width="30" height="35" viewBox="0 0 30 35" fill="none" xmlns="http://www.w3.org/2000/svg">
<path d="M29.0658 11.9227H0V8.06795L14.5329 0L29.0658 8.06795V11.9227ZM4.73646 8.89824H24.3294L14.5329 3.46012L4.73646 8.89824ZM16.0452 35H13.0206V10.4105H16.0452L16.0452 35ZM29.0658 35H26.0414V30.7203H21.8373V35H18.8127V27.6957H29.0659L29.0658 35ZM29.0658 29.208H26.0414V20.5275H29.0659L29.0658 29.208ZM10.2532 35H7.22873V30.7203H3.02463V35H3.39484e-05V27.6957H10.2532L10.2532 35ZM3.02456 29.208H0V20.5275H3.02453L3.02456 29.208ZM23.2134 24.9435H5.85248V21.9188H23.2134V24.9435Z" fill="#1D4C77"/>
</svg>
