<svg xmlns="http://www.w3.org/2000/svg" width="45" height="35" viewBox="0 0 45 35" fill="none">
  <path d="M44.6421 9.6C32.1848 -3.20234 12.8102 -3.19766 0.357831 9.6C-0.110451 10.0813 -0.119591 10.8961 0.333222 11.3953L2.74072 14.0492C3.17244 14.5258 3.86713 14.5359 4.31572 14.0789C14.5757 3.63516 30.4228 3.63281 40.6849 14.0789C41.1335 14.5359 41.8282 14.525 42.2599 14.0492L44.6674 11.3953C45.1195 10.8961 45.1104 10.0813 44.6421 9.6ZM22.5 25C20.0144 25 17.9999 27.2383 17.9999 30C17.9999 32.7617 20.0144 35 22.5 35C24.9855 35 27 32.7617 27 30C27 27.2383 24.9855 25 22.5 25ZM36.7502 18.4695C28.646 10.5063 16.3448 10.5148 8.24971 18.4695C7.76455 18.9461 7.74908 19.7734 8.20963 20.2781L10.6312 22.9336C11.0531 23.3961 11.7323 23.4273 12.1816 22.9961C18.0843 17.3266 26.9289 17.3391 32.8176 22.9961C33.2669 23.4273 33.9461 23.3969 34.368 22.9336L36.7896 20.2781C37.2508 19.7734 37.2346 18.9453 36.7502 18.4695Z" fill="#1D4C77"/>
</svg>